<?xml version="1.0" encoding="utf-8"?>

<!DOCTYPE svg PUBLIC "-//W3C//DTD SVG 1.1//EN" "http://www.w3.org/Graphics/SVG/1.1/DTD/svg11.dtd">
<svg version="1.1" id="Layer_1" xmlns="http://www.w3.org/2000/svg" xmlns:xlink="http://www.w3.org/1999/xlink" x="0px" y="0px"
	 width="506.418px" height="566.148px" viewBox="0 0 506.418 566.148" enable-background="new 0 0 506.418 566.148"
	 xml:space="preserve">
<g>
	<g>
		<g>
			<path fill="#056936" d="M384.344,355.66c7.956-7.494,14.394-13.974,19.302-19.47c4.914-5.508,8.778-10.518,11.586-15.096
				c2.79-4.554,4.656-8.868,5.61-12.978c0.93-4.08,1.404-8.466,1.404-13.152c0-6.762-1.176-13.092-3.522-18.936
				c-2.328-5.862-5.598-11.004-9.804-15.438c-4.206-4.446-9.258-7.878-15.096-10.344c-5.85-2.46-12.276-3.696-19.296-3.696
				c-10.986,0-20.532,3-28.584,8.958c-8.064,5.964-13.512,14.196-16.326,24.714c-0.924,3.06-2.154,5.568-3.672,7.56
				c-1.518,1.992-3.816,2.988-6.846,2.988c-3.03,0-5.556-0.996-7.554-2.988c-1.974-1.992-2.988-4.5-2.988-7.56
				c0-5.136,1.596-10.848,4.746-17.184c3.162-6.3,7.662-12.138,13.5-17.538c5.862-5.376,12.93-9.87,21.246-13.5
				c8.292-3.648,17.718-5.43,28.23-5.43c9.354,0,18.078,1.86,26.148,5.61c8.046,3.738,15.138,8.772,21.228,15.078
				c6.06,6.312,10.854,13.746,14.364,22.278c3.522,8.532,5.268,17.484,5.268,26.832c0,11.466-2.754,22.464-8.25,32.97
				c-5.49,10.53-14.196,21.186-26.118,31.932l-73.68,68.418h96.816c3.042,0,5.628,1.062,7.728,3.156
				c2.1,2.112,3.168,4.686,3.168,7.71c0,3.048-1.068,5.574-3.168,7.548c-2.1,1.992-4.686,2.976-7.728,2.976H313.832
				c-0.696,0-1.812-0.108-3.318-0.348c-1.536-0.222-3-0.75-4.392-1.572c-1.404-0.816-2.706-1.98-3.87-3.516
				c-1.176-1.524-1.758-3.438-1.758-5.778c0.24-3.048,2.238-6.432,5.976-10.176L384.344,355.66z"/>
			<g>
				<path fill="#056936" d="M464.711,190.749c0-9.762,7.908-17.67,17.67-17.67c9.75,0,17.652,7.908,17.652,17.67v243.408
					c0,9.762-7.902,17.676-17.652,17.676c-9.762,0-17.67-7.914-17.67-17.676V190.749z"/>
				<path fill="#019547" d="M482.91,159.917c6.486,0,12.048-2.298,16.62-6.888c4.59-4.584,6.888-10.128,6.888-16.62
					c0-6.504-2.298-12.048-6.888-16.62c-4.572-4.596-10.134-6.9-16.62-6.9c-6.498,0-12.036,2.304-16.626,6.9
					c-4.596,4.572-6.888,10.116-6.888,16.62c0,6.492,2.292,12.036,6.888,16.62C470.874,157.619,476.412,159.917,482.91,159.917"/>
				<path fill="#019547" d="M500.037,267.103v-76.356c0-9.75-7.902-17.664-17.664-17.664c-9.756,0-17.664,7.914-17.664,17.664
					v96.672C476.697,281.713,488.817,274.969,500.037,267.103"/>
			</g>
			<path fill="#019547" d="M438.022,269.534c-3.51-8.532-8.304-15.96-14.376-22.278c-6.078-6.312-13.164-11.346-21.222-15.078
				c-8.058-3.75-16.788-5.61-26.142-5.61c-10.512,0-19.944,1.788-28.23,5.43c-8.316,3.636-15.39,8.124-21.246,13.5
				c-5.838,5.394-10.338,11.226-13.5,17.544c-3.156,6.342-4.746,12.048-4.746,17.178c0,3.06,1.008,5.568,2.994,7.56
				c1.992,1.992,4.506,2.988,7.554,2.988c3.024,0,5.316-0.996,6.834-2.988c1.518-1.992,2.748-4.5,3.684-7.56
				c2.802-10.524,8.256-18.75,16.314-24.714c8.064-5.958,17.604-8.958,28.596-8.958c7.02,0,13.44,1.236,19.302,3.696
				c5.82,2.466,10.86,5.91,15.078,10.35c4.218,4.44,7.482,9.57,9.81,15.432c2.346,5.844,3.516,12.168,3.516,18.924
				c0,3.684-0.294,7.164-0.864,10.446c7.368-2.532,14.688-5.196,21.882-8.028c0-0.342,0.03-0.672,0.03-0.984
				C443.29,287.017,441.544,278.066,438.022,269.534"/>
			<g>
				<g>
					<path fill="#056936" d="M244.105,398.328c-12.762,14.304-28.122,26.574-46.092,36.816
						c-17.988,10.254-37.416,15.36-58.284,15.36c-19.326,0-37.386-3.468-54.216-10.428c-16.8-6.972-31.578-16.614-44.34-28.992
						c-12.75-12.36-22.806-27.066-30.144-44.07C3.684,350.016,0,331.47,0,311.358c0-19.326,3.576-37.59,10.734-54.798
						c7.152-17.19,16.992-32.166,29.568-44.934c12.57-12.744,27.444-22.794,44.646-30.138c17.196-7.344,35.838-11.016,55.95-11.016
						c18.54,0,36.228,3.774,53.046,11.31c16.794,7.524,31.608,17.682,44.352,30.438c12.75,12.762,22.908,27.642,30.438,44.646
						c7.548,17.004,11.31,35.166,11.31,54.492v122.334c0,5.028-1.746,9.288-5.22,12.762c-3.486,3.474-7.728,5.226-12.756,5.226
						c-5.022,0-9.282-1.752-12.762-5.226c-3.468-3.474-5.202-7.734-5.202-12.762V398.328z M244.105,311.358
						c0-14.298-2.712-27.828-8.118-40.584c-5.418-12.762-12.858-23.868-22.326-33.324c-9.468-9.48-20.586-16.914-33.342-22.338
						c-12.75-5.4-26.286-8.124-40.59-8.124c-14.298,0-27.732,2.724-40.302,8.124c-12.552,5.424-23.562,12.858-33.03,22.338
						c-9.468,9.456-16.92,20.562-22.32,33.324c-5.418,12.756-8.136,26.286-8.136,40.584c0,14.298,2.718,27.738,8.136,40.302
						c5.4,12.552,12.852,23.574,22.32,33.048c9.468,9.468,20.478,16.908,33.03,22.308c12.57,5.43,26.004,8.136,40.302,8.136
						c13.92,0,27.054-2.622,39.438-7.836c12.366-5.22,23.292-12.462,32.76-21.744c9.468-9.282,17.004-20.202,22.602-32.76
						C240.133,340.254,243.319,326.442,244.105,311.358"/>
					<path fill="#019547" d="M238.304,212.218c-12.762-12.756-27.552-22.908-44.364-30.432
						c-16.812-7.536-34.494-11.316-53.04-11.316c-20.112,0-38.754,3.672-55.956,11.022c-17.208,7.35-32.076,17.388-44.634,30.132
						c-4.422,4.506-8.49,9.276-12.252,14.316c6.372,10.956,13.788,21.78,22.404,32.136c4.458-7.572,9.75-14.466,15.936-20.628
						c9.462-9.48,20.466-16.908,33.03-22.338c12.57-5.4,26.01-8.118,40.302-8.118c14.304,0,27.84,2.718,40.59,8.118
						c12.75,5.43,23.862,12.858,33.342,22.338c9.462,9.468,16.908,20.568,22.332,33.33c5.406,12.756,8.112,26.286,8.112,40.578
						c-0.54,10.164-2.178,19.74-4.902,28.77c12.942,0.306,26.532-0.042,40.842-1.086v-27.684c0-19.32-3.768-37.488-11.31-54.504
						C261.188,239.86,251.054,224.968,238.304,212.218"/>
				</g>
				<g>
					<path fill="#B11F24" d="M224.687,310.432c0-46.776-37.908-84.684-84.666-84.684c-46.776,0-84.69,37.908-84.69,84.684
						c0,46.758,37.914,84.666,84.69,84.666C186.779,395.098,224.687,357.19,224.687,310.432"/>
					<path fill="#EC2427" d="M140.019,225.753c-33.33,0-62.142,19.26-75.954,47.238c34.032,33.954,83.532,60.564,155.628,66.156
						c3.222-8.964,4.992-18.648,4.992-28.716C224.685,263.655,186.777,225.753,140.019,225.753"/>
					<polygon fill="#FFFFFF" points="167.769,352.526 144.825,307.472 163.935,297.704 119.139,268.634 116.331,321.962 
						135.471,312.224 158.439,357.296 					"/>
				</g>
			</g>
		</g>
		<g>
			<path fill="#231F20" d="M133.913,129.255c0,0,0.174-4.716,7.524-1.11c7.35,3.636,24.294,14.232,43.896,9.258
				c19.62-4.968,23.664-12.588,44.928-12.84c0,0,17.028,0.762,26.994,7.8c0,0-2.01-8.43-24.012-11.982
				c-21.972-3.528-29.55-0.246-41.664-1.854c-12.126-1.644-28.548-7.386-32.388-13.98c-3.834-6.6-3.264-15.258,3.642-16.836
				c0,0,6.456-1.29,12.552,4.992c6.078,6.312,20.412,15.306,33.924,13.524c13.5-1.746,16.032-3.45,16.032-3.45
				s-31.584,2.634-46.302-32.754c0,0-7.908-17.628-13.398-32.604c0,0-19.32-56.754-85.482-30.468c0,0,16.686,2.496,17.262,18.342
				c0,0,2.262,24.186-2.964,45.474c-5.238,21.294-2.91,73.308,73.944,86.028C168.401,156.795,131.477,145.6,133.913,129.255"/>
			<path fill="#231F20" d="M226.456,138.044c-3.834,0.39-7.536,1.41-11.088,2.838c-7.824,3.096-28.2,9.966-45.138,4.938
				c0,0,24.24,16.404,49.116,10.638c0,0,34.872-10.05,51.474,2.304C270.82,158.762,254.182,135.248,226.456,138.044"/>
			<path fill="#424143" d="M124.714,35.57c3.588,25.5-1.116,58.266,19.26,78.108c17.106,16.686,41.886,14.964,62.82,7.566
				c2.304-0.81,4.614-1.674,6.918-2.574c-8.712-0.036-14.538,0.864-22.128-0.144c-12.132-1.638-28.554-7.38-32.394-13.98
				c-3.834-6.6-3.27-15.258,3.648-16.842c0,0,6.456-1.284,12.534,5.004c6.09,6.306,20.43,15.294,33.942,13.518
				c13.5-1.752,16.026-3.45,16.026-3.45s-31.584,2.64-46.296-32.754c0,0-7.914-17.616-13.404-32.598c0,0-19.314-56.754-85.482-30.48
				c0,0,0.426,0.072,1.092,0.234C94.234,7.46,121.246,11.054,124.714,35.57"/>
			<path fill="#FFFFFF" d="M117.975,19.374c0.384-1.956-0.906-3.87-2.874-4.248c-1.968-0.384-3.876,0.894-4.26,2.868
				c-0.378,1.98,0.912,3.876,2.88,4.254C115.677,22.645,117.603,21.342,117.975,19.374"/>
		</g>
	</g>
	<g>
		<g>
			<g>
				<path fill="#424143" d="M126.378,553.045l2.658-0.234c0.132,1.068,0.426,1.944,0.87,2.616c0.468,0.696,1.182,1.242,2.154,1.668
					c0.96,0.426,2.052,0.63,3.27,0.63c1.074,0,2.016-0.15,2.838-0.498c0.822-0.294,1.44-0.738,1.842-1.308
					c0.396-0.552,0.588-1.152,0.588-1.806c0-0.666-0.18-1.254-0.564-1.758c-0.39-0.504-1.032-0.912-1.914-1.254
					c-0.564-0.222-1.842-0.564-3.786-1.044c-1.956-0.456-3.336-0.894-4.116-1.326c-1.02-0.528-1.77-1.194-2.268-1.98
					c-0.498-0.792-0.75-1.674-0.75-2.64c0-1.074,0.294-2.088,0.912-3.03c0.6-0.924,1.488-1.644,2.658-2.124
					c1.176-0.486,2.49-0.726,3.918-0.726c1.566,0,2.964,0.264,4.182,0.762c1.194,0.504,2.124,1.266,2.772,2.238
					c0.648,0.996,1.002,2.118,1.05,3.378l-2.706,0.192c-0.162-1.356-0.636-2.37-1.47-3.042c-0.834-0.702-2.07-1.044-3.726-1.044
					c-1.698,0-2.928,0.312-3.714,0.936c-0.78,0.624-1.17,1.386-1.17,2.274c0,0.744,0.282,1.374,0.846,1.878
					c0.528,0.486,1.938,1.008,4.23,1.524c2.304,0.516,3.852,0.966,4.722,1.344c1.242,0.57,2.154,1.302,2.742,2.178
					c0.582,0.87,0.876,1.878,0.876,3.03c0,1.122-0.324,2.208-0.966,3.204c-0.66,0.996-1.59,1.788-2.784,2.328
					c-1.242,0.546-2.592,0.84-4.122,0.84c-1.926,0-3.528-0.294-4.842-0.846c-1.296-0.558-2.322-1.398-3.06-2.526
					C126.804,555.739,126.414,554.473,126.378,553.045"/>
				<path fill="#424143" d="M157.013,554.92l2.688,0.336c-0.414,1.584-1.194,2.802-2.352,3.684c-1.146,0.87-2.616,1.302-4.404,1.302
					c-2.274,0-4.068-0.69-5.376-2.094c-1.326-1.374-1.986-3.342-1.986-5.844c0-2.598,0.678-4.602,1.998-6.036
					c1.344-1.44,3.078-2.154,5.202-2.154c2.064,0,3.756,0.702,5.052,2.112c1.32,1.404,1.968,3.372,1.968,5.916
					c0,0.15,0,0.39-0.012,0.702h-11.508c0.102,1.704,0.57,2.994,1.452,3.894c0.852,0.894,1.932,1.344,3.21,1.344
					c0.942,0,1.788-0.246,2.46-0.75C156.083,556.828,156.611,556.024,157.013,554.92 M148.433,550.702h8.61
					c-0.114-1.314-0.456-2.28-0.984-2.928c-0.834-0.996-1.92-1.506-3.246-1.506c-1.182,0-2.208,0.396-3.018,1.2
					C148.973,548.266,148.529,549.346,148.433,550.702"/>
				<path fill="#424143" d="M162.589,559.889v-15.42h2.346v2.334c0.594-1.092,1.158-1.812,1.668-2.16
					c0.498-0.354,1.05-0.528,1.668-0.528c0.882,0,1.77,0.294,2.688,0.852l-0.906,2.418c-0.642-0.372-1.266-0.57-1.908-0.57
					c-0.564,0-1.092,0.174-1.542,0.522c-0.45,0.33-0.78,0.804-0.96,1.428c-0.306,0.942-0.45,1.95-0.45,3.048v8.076H162.589z"/>
				<path fill="#424143" d="M176.417,559.889l-5.862-15.42h2.742l3.306,9.222c0.384,1.008,0.702,2.04,1.014,3.102
					c0.216-0.804,0.558-1.776,0.954-2.916l3.426-9.408h2.706l-5.85,15.42H176.417z"/>
				<path fill="#424143" d="M186.636,538.582h2.604v3.012h-2.604V538.582z M186.636,544.468h2.604v15.426h-2.604V544.468z"/>
				<path fill="#424143" d="M202.89,554.24l2.58,0.33c-0.282,1.782-1.008,3.156-2.148,4.158c-1.158,1.008-2.592,1.506-4.272,1.506
					c-2.1,0-3.804-0.684-5.082-2.082c-1.272-1.356-1.932-3.348-1.932-5.928c0-1.656,0.294-3.108,0.834-4.356
					c0.552-1.254,1.386-2.202,2.532-2.814c1.116-0.624,2.346-0.936,3.648-0.936c1.698,0,3.066,0.42,4.134,1.284
					c1.056,0.84,1.74,2.04,2.04,3.588l-2.544,0.396c-0.234-1.026-0.666-1.806-1.278-2.328c-0.624-0.528-1.362-0.792-2.226-0.792
					c-1.32,0-2.406,0.462-3.204,1.41c-0.852,0.948-1.242,2.442-1.242,4.488c0,2.064,0.39,3.57,1.182,4.5
					c0.804,0.954,1.836,1.416,3.102,1.416c1.044,0,1.896-0.312,2.574-0.948C202.278,556.527,202.716,555.555,202.89,554.24"/>
				<path fill="#424143" d="M217.875,554.92l2.7,0.336c-0.42,1.584-1.206,2.802-2.364,3.684c-1.158,0.87-2.616,1.302-4.416,1.302
					c-2.244,0-4.044-0.69-5.364-2.094c-1.332-1.374-1.968-3.342-1.968-5.844c0-2.598,0.648-4.602,1.992-6.036
					c1.35-1.44,3.072-2.154,5.202-2.154c2.052,0,3.756,0.702,5.046,2.112c1.308,1.404,1.968,3.372,1.968,5.916
					c0,0.15-0.012,0.39-0.018,0.702h-11.49c0.078,1.704,0.558,2.994,1.428,3.894c0.852,0.894,1.932,1.344,3.222,1.344
					c0.96,0,1.782-0.246,2.448-0.75C216.95,556.828,217.478,556.024,217.875,554.92 M209.295,550.702h8.622
					c-0.114-1.314-0.462-2.28-0.996-2.928c-0.822-0.996-1.902-1.506-3.222-1.506c-1.218,0-2.232,0.396-3.03,1.2
					C209.834,548.266,209.39,549.346,209.295,550.702"/>
			</g>
			<g>
				<path fill="#424143" d="M246.25,557.52c-0.636,0.708-1.332,1.314-2.112,1.746c-0.78,0.438-1.554,0.672-2.334,0.672
					c-0.876,0-1.71-0.258-2.514-0.774c-0.81-0.498-1.476-1.272-1.98-2.298c-0.516-1.068-0.774-2.202-0.774-3.456
					c0-1.536,0.396-3.096,1.188-4.626c0.792-1.554,1.77-2.7,2.946-3.486c1.164-0.774,2.322-1.158,3.402-1.158
					c0.84,0,1.656,0.222,2.412,0.666c0.774,0.432,1.422,1.11,1.98,2.016l0.492-2.262h2.592l-2.088,9.738
					c-0.27,1.362-0.432,2.124-0.432,2.256c0,0.276,0.096,0.486,0.306,0.672c0.198,0.192,0.432,0.294,0.72,0.294
					c0.504,0,1.188-0.294,1.998-0.876c1.122-0.774,1.992-1.83,2.634-3.12c0.648-1.302,0.96-2.646,0.96-4.038
					c0-1.614-0.396-3.132-1.242-4.524c-0.816-1.404-2.064-2.526-3.702-3.378c-1.626-0.846-3.444-1.254-5.436-1.254
					c-2.274,0-4.338,0.516-6.204,1.596c-1.884,1.05-3.324,2.568-4.344,4.542c-1.044,1.986-1.572,4.104-1.572,6.378
					c0,2.364,0.528,4.416,1.572,6.12c1.02,1.722,2.496,2.982,4.464,3.804c1.944,0.816,4.11,1.23,6.48,1.23
					c2.538,0,4.668-0.42,6.378-1.284c1.71-0.846,3-1.884,3.84-3.102h2.64c-0.504,1.014-1.338,2.046-2.544,3.102
					c-1.212,1.062-2.64,1.902-4.284,2.502c-1.656,0.618-3.66,0.93-6,0.93c-2.124,0-4.116-0.27-5.934-0.834
					c-1.812-0.552-3.36-1.368-4.65-2.484c-1.254-1.104-2.22-2.382-2.886-3.828c-0.81-1.842-1.218-3.81-1.218-5.922
					c0-2.37,0.492-4.626,1.452-6.756c1.182-2.616,2.862-4.644,5.034-6.03c2.172-1.392,4.824-2.094,7.914-2.094
					c2.388,0,4.536,0.504,6.462,1.476c1.92,0.984,3.426,2.442,4.53,4.392c0.93,1.686,1.41,3.504,1.41,5.46
					c0,2.814-0.984,5.292-2.976,7.476c-1.758,1.962-3.684,2.94-5.76,2.94c-0.678,0-1.218-0.102-1.626-0.306
					c-0.414-0.198-0.72-0.498-0.912-0.882C246.4,558.528,246.31,558.108,246.25,557.52 M239.23,553.584
					c0,1.332,0.306,2.352,0.942,3.084c0.618,0.738,1.356,1.11,2.172,1.11c0.528,0,1.092-0.15,1.71-0.48
					c0.588-0.33,1.176-0.81,1.704-1.44c0.552-0.648,1.002-1.452,1.35-2.436c0.354-0.978,0.522-1.968,0.522-2.958
					c0-1.326-0.324-2.34-0.972-3.066c-0.654-0.726-1.452-1.092-2.4-1.092c-0.6,0-1.188,0.156-1.734,0.468
					c-0.552,0.324-1.092,0.822-1.608,1.53c-0.504,0.684-0.912,1.53-1.23,2.538C239.368,551.832,239.23,552.75,239.23,553.584"/>
			</g>
			<g>
				<path fill="#424143" d="M269.369,559.895v-21.312h7.326c1.662,0,2.928,0.12,3.81,0.318c1.218,0.276,2.262,0.786,3.12,1.53
					c1.122,0.942,1.962,2.172,2.526,3.636c0.54,1.476,0.822,3.168,0.822,5.058c0,1.62-0.186,3.054-0.576,4.308
					c-0.36,1.242-0.852,2.274-1.428,3.09c-0.6,0.822-1.254,1.458-1.956,1.938c-0.696,0.456-1.536,0.822-2.544,1.062
					c-0.99,0.24-2.142,0.372-3.408,0.372H269.369z M272.189,557.369h4.542c1.41,0,2.52-0.138,3.306-0.384
					c0.798-0.264,1.44-0.63,1.914-1.104c0.672-0.672,1.182-1.584,1.56-2.694c0.378-1.134,0.558-2.49,0.558-4.104
					c0-2.232-0.354-3.942-1.098-5.124c-0.726-1.212-1.62-2.01-2.664-2.418c-0.75-0.288-1.986-0.438-3.648-0.438h-4.47V557.369z"/>
				<path fill="#424143" d="M289.177,552.178c0-2.868,0.762-4.98,2.364-6.354c1.314-1.134,2.94-1.71,4.842-1.71
					c2.13,0,3.864,0.696,5.214,2.076c1.338,1.404,2.01,3.33,2.01,5.766c0,1.98-0.3,3.552-0.888,4.692
					c-0.594,1.134-1.47,2.01-2.598,2.652c-1.146,0.624-2.388,0.936-3.738,0.936c-2.16,0-3.894-0.684-5.238-2.082
					C289.819,556.774,289.177,554.776,289.177,552.178 M291.847,552.178c0,1.974,0.42,3.45,1.29,4.428
					c0.858,0.984,1.938,1.47,3.246,1.47c1.314,0,2.382-0.486,3.246-1.47c0.858-0.996,1.29-2.496,1.29-4.524
					c0-1.914-0.432-3.348-1.302-4.338c-0.864-0.966-1.944-1.458-3.234-1.458c-1.308,0-2.388,0.492-3.246,1.458
					C292.266,548.734,291.847,550.186,291.847,552.178"/>
				<path fill="#424143" d="M305.313,552.178c0-2.868,0.798-4.98,2.382-6.354c1.344-1.134,2.952-1.71,4.848-1.71
					c2.118,0,3.852,0.696,5.202,2.076c1.362,1.404,2.028,3.33,2.028,5.766c0,1.98-0.3,3.552-0.894,4.692
					c-0.6,1.134-1.476,2.01-2.616,2.652c-1.128,0.624-2.37,0.936-3.72,0.936c-2.154,0-3.894-0.684-5.226-2.082
					C305.979,556.774,305.313,554.776,305.313,552.178 M308.001,552.178c0,1.974,0.426,3.45,1.29,4.428
					c0.858,0.984,1.962,1.47,3.252,1.47c1.296,0,2.376-0.486,3.246-1.47c0.864-0.996,1.29-2.496,1.29-4.524
					c0-1.914-0.438-3.348-1.29-4.338c-0.882-0.966-1.95-1.458-3.246-1.458c-1.29,0-2.394,0.492-3.252,1.458
					C308.427,548.734,308.001,550.186,308.001,552.178"/>
				<path fill="#424143" d="M322.422,559.889v-15.42h2.346v2.334c0.594-1.092,1.152-1.812,1.662-2.16
					c0.504-0.354,1.062-0.528,1.692-0.528c0.87,0,1.764,0.294,2.676,0.852l-0.912,2.418c-0.636-0.372-1.266-0.57-1.908-0.57
					c-0.564,0-1.086,0.174-1.53,0.522c-0.462,0.33-0.786,0.804-0.978,1.428c-0.294,0.942-0.444,1.95-0.444,3.048v8.076H322.422z"/>
				<path fill="#424143" d="M330.918,555.283l2.592-0.396c0.138,1.02,0.54,1.824,1.212,2.382c0.66,0.534,1.584,0.816,2.784,0.816
					c1.194,0,2.082-0.24,2.676-0.738c0.57-0.48,0.858-1.05,0.858-1.71c0-0.594-0.246-1.05-0.768-1.398
					c-0.354-0.246-1.254-0.534-2.682-0.888c-1.914-0.48-3.234-0.906-3.972-1.254c-0.738-0.36-1.32-0.846-1.704-1.464
					c-0.366-0.624-0.576-1.326-0.576-2.07c0-0.69,0.18-1.326,0.492-1.914c0.3-0.576,0.726-1.068,1.278-1.47
					c0.402-0.282,0.972-0.534,1.668-0.75c0.702-0.21,1.458-0.312,2.25-0.312c1.212,0,2.268,0.174,3.198,0.528
					c0.912,0.342,1.578,0.816,2.016,1.416c0.444,0.588,0.732,1.386,0.9,2.376l-2.562,0.354c-0.096-0.792-0.45-1.404-0.99-1.854
					c-0.57-0.456-1.35-0.672-2.364-0.672c-1.206,0-2.052,0.192-2.58,0.588c-0.516,0.408-0.756,0.858-0.756,1.392
					c0,0.342,0.102,0.654,0.312,0.93c0.222,0.27,0.54,0.516,0.996,0.696c0.258,0.096,1.038,0.318,2.322,0.666
					c1.86,0.492,3.126,0.888,3.852,1.206c0.75,0.324,1.314,0.774,1.716,1.374c0.432,0.606,0.642,1.338,0.642,2.238
					c0,0.876-0.246,1.686-0.762,2.472c-0.516,0.756-1.242,1.368-2.196,1.782c-0.96,0.402-2.046,0.63-3.252,0.63
					c-2.016,0-3.528-0.42-4.596-1.254C331.866,558.151,331.212,556.915,330.918,555.283"/>
				<path fill="#424143" d="M352.175,557.545l0.366,2.322c-0.732,0.138-1.41,0.228-1.986,0.228c-0.954,0-1.692-0.162-2.208-0.462
					c-0.516-0.294-0.882-0.69-1.092-1.17c-0.222-0.51-0.33-1.53-0.33-3.084v-8.892h-1.914v-2.028h1.914v-3.804l2.604-1.59v5.394
					h2.646v2.028h-2.646v9.03c0,0.732,0.042,1.212,0.138,1.428c0.09,0.216,0.234,0.39,0.444,0.504
					c0.216,0.144,0.516,0.204,0.894,0.204C351.305,557.653,351.683,557.629,352.175,557.545"/>
				<path fill="#424143" d="M364.88,554.92l2.706,0.336c-0.438,1.584-1.218,2.802-2.37,3.684c-1.146,0.87-2.622,1.302-4.416,1.302
					c-2.25,0-4.05-0.69-5.37-2.094c-1.308-1.374-1.98-3.342-1.98-5.844c0-2.598,0.672-4.602,2.004-6.036
					c1.344-1.44,3.084-2.154,5.208-2.154c2.046,0,3.738,0.702,5.034,2.112c1.32,1.404,1.986,3.372,1.986,5.916
					c0,0.15,0,0.39-0.024,0.702h-11.496c0.102,1.704,0.558,2.994,1.44,3.894c0.84,0.894,1.926,1.344,3.198,1.344
					c0.972,0,1.794-0.246,2.46-0.75C363.944,556.828,364.484,556.024,364.88,554.92 M356.306,550.702h8.61
					c-0.12-1.314-0.438-2.28-0.984-2.928c-0.834-0.996-1.926-1.506-3.246-1.506c-1.206,0-2.202,0.396-3.018,1.2
					C356.84,548.266,356.39,549.346,356.306,550.702"/>
				<path fill="#424143" d="M370.471,565.796v-21.33h2.388v2.004c0.57-0.774,1.206-1.356,1.896-1.758
					c0.708-0.408,1.572-0.594,2.568-0.594c1.326,0,2.484,0.336,3.492,1.008c1.014,0.678,1.77,1.644,2.286,2.874
					c0.504,1.236,0.786,2.592,0.786,4.074c0,1.56-0.294,2.994-0.87,4.242c-0.564,1.272-1.38,2.244-2.472,2.904
					c-1.062,0.672-2.196,1.02-3.396,1.02c-0.882,0-1.656-0.18-2.352-0.546c-0.684-0.378-1.272-0.846-1.698-1.398v7.5H370.471z
					 M372.847,552.266c0,1.98,0.396,3.45,1.206,4.386c0.81,0.978,1.77,1.428,2.916,1.428c1.164,0,2.16-0.492,2.994-1.47
					c0.828-0.972,1.242-2.496,1.242-4.56c0-1.98-0.414-3.438-1.212-4.416c-0.804-0.978-1.788-1.464-2.904-1.464
					c-1.116,0-2.1,0.51-2.958,1.542C373.279,548.762,372.847,550.28,372.847,552.266"/>
				<path fill="#424143" d="M385.592,555.283l2.574-0.396c0.15,1.02,0.558,1.824,1.218,2.382c0.672,0.534,1.59,0.816,2.79,0.816
					s2.094-0.24,2.658-0.738c0.588-0.48,0.888-1.05,0.888-1.71c0-0.594-0.264-1.05-0.768-1.398c-0.36-0.246-1.254-0.534-2.688-0.888
					c-1.92-0.48-3.246-0.906-3.984-1.254c-0.726-0.36-1.302-0.846-1.674-1.464c-0.39-0.624-0.588-1.326-0.588-2.07
					c0-0.69,0.156-1.326,0.48-1.914c0.306-0.576,0.738-1.068,1.284-1.47c0.42-0.282,0.954-0.534,1.674-0.75
					c0.702-0.21,1.446-0.312,2.244-0.312c1.212,0,2.274,0.174,3.204,0.528c0.9,0.342,1.578,0.816,2.01,1.416
					c0.438,0.588,0.744,1.386,0.912,2.376l-2.568,0.354c-0.102-0.792-0.45-1.404-1.002-1.854c-0.558-0.456-1.344-0.672-2.352-0.672
					c-1.206,0-2.076,0.192-2.592,0.588c-0.51,0.408-0.756,0.858-0.756,1.392c0,0.342,0.114,0.654,0.318,0.93
					c0.216,0.27,0.546,0.516,1.014,0.696c0.258,0.096,1.014,0.318,2.298,0.666c1.854,0.492,3.15,0.888,3.876,1.206
					c0.714,0.324,1.302,0.774,1.698,1.374c0.426,0.606,0.66,1.338,0.66,2.238c0,0.876-0.27,1.686-0.774,2.472
					c-0.516,0.756-1.248,1.368-2.202,1.782c-0.966,0.402-2.04,0.63-3.258,0.63c-1.992,0-3.528-0.42-4.584-1.254
					C386.546,558.151,385.879,556.915,385.592,555.283"/>
			</g>
		</g>
		<g>
			<g>
				<path fill="#046938" d="M110.235,506.111H99.381c0.306,1.044,1.098,1.98,2.376,2.79c0.48,0.318,0.9,0.528,1.302,0.63
					c0.75,0.222,1.8,0.222,3.162,0l2.124,2.628c-1.554,3.198-2.334,5.556-2.334,7.086c0,3.492,0.456,5.79,1.338,6.858l-2.172,1.158
					c-0.552-0.726-1.02-1.77-1.416-3.138c-0.39-1.29-0.588-2.418-0.588-3.39c0-1.878,0.21-3.522,0.636-4.956l0.96-3.252
					c-1.902-0.204-3.666-0.87-5.31-1.98c-1.83-1.224-2.922-2.718-3.258-4.434c-0.33,0.222-0.714,0.528-1.158,0.924
					c-1.728,1.572-2.592,3.318-2.592,5.226c0,1.35,0.528,2.016,1.59,2.016c0.6,0,1.284-0.198,2.022-0.618
					c0.75-0.414,1.218-0.894,1.44-1.422h2.904c0.66,0.918,0.978,2.442,0.978,4.548c0,1.626-0.216,2.88-0.636,3.792
					c-1.23,2.724-3.774,4.104-7.584,4.104c-1.584,0-3.228-0.594-4.932-1.764c-0.258-0.18-0.618-0.402-1.08-0.708
					c-0.858-1.416-2.046-3.624-3.546-6.642l1.878-1.788c0.582,1.89,1.68,3.936,3.294,6.102l0.366,0.504h0.048v-0.054
					c0-0.03,0.012-0.042,0.048-0.042c0.084,0,0.282,0.102,0.582,0.288c1.236,0.792,2.286,1.164,3.18,1.164
					c2.202,0,3.774-0.744,4.746-2.25c0.42-0.636,0.63-1.422,0.63-2.364c0-0.726-0.15-1.338-0.462-1.806
					c-1.14,1.284-2.478,1.914-4.05,1.914c-1.056,0-1.98-0.27-2.754-0.84c-0.774-0.582-1.272-1.368-1.464-2.4
					c-0.186-0.558-0.288-1.17-0.288-1.836c0-1.374,0.414-2.766,1.212-4.212c0.24-0.39,0.636-1.002,1.248-1.836h-9.882V503.4h28.296
					V506.111z"/>
				<path fill="#046938" d="M132.302,506.111h-2.244v20.07h-3.096v-1.764c0-1.038-0.618-2.436-1.86-4.17
					c-2.496-3.426-5.052-5.136-7.698-5.136c-1.578,0-2.658,0.774-3.21,2.304c-0.084,0.216-0.126,0.468-0.126,0.756
					c0,1.158,0.51,2.04,1.554,2.622c0.492,0.276,1.038,0.414,1.608,0.414c0.6,0,1.212-0.144,1.89-0.456l0.906,2.928
					c-0.798,0.444-1.734,0.666-2.796,0.666h-0.732c-0.108-0.048-0.396-0.084-0.876-0.168c-1.284-0.216-2.466-0.93-3.516-2.094
					c-0.81-0.876-1.206-2.16-1.206-3.846c0-2.136,0.834-3.816,2.508-5.082c1.026-0.768,2.238-1.17,3.63-1.17
					c2.64,0,4.974,0.924,7.008,2.76c0.666,0.576,1.266,1.212,1.788,1.878c0.282,0.36,0.66,0.9,1.128,1.614v-12.126H109.1V503.4
					h23.202V506.111z"/>
				<path fill="#046938" d="M152.675,506.111h-2.508v19.818h-3.09v-13.398c-0.108-0.558-0.462-1.302-1.044-2.268
					c-0.576-0.93-1.104-1.62-1.578-2.076c-1.224-1.17-2.712-1.746-4.47-1.746c-0.612,0-1.218,0.21-1.794,0.63
					c-0.066,0.012-0.564,0.444-1.5,1.242c0.342-0.138,0.9-0.198,1.71-0.198c1.332,0,2.46,0.33,3.366,0.996
					c1.032,0.75,1.56,1.752,1.56,3.048c0,0.786-0.24,1.686-0.708,2.754c-0.48,1.068-1.008,1.83-1.602,2.322
					c-1.644,1.404-2.898,2.238-3.786,2.508l-2.004-2.58c1.032-0.246,2.214-1.032,3.576-2.346c1.02-0.93,1.518-1.848,1.518-2.754
					c0-0.468-0.324-0.828-0.972-1.08c-0.468-0.198-0.984-0.27-1.548-0.27c-0.234,0-0.63-0.06-1.134-0.168
					c-0.522-0.084-0.894-0.144-1.146-0.144c-0.39,0-0.744,0.084-1.056,0.252l-1.488-2.832c0.468-0.396,1.134-1.122,1.998-2.166
					c0.282-0.54,1.026-1.032,2.214-1.47c1.086-0.42,1.968-0.63,2.664-0.63c3.084,0,5.496,1.362,7.224,4.05V503.4h5.598V506.111z"/>
				<path fill="#046938" d="M165.109,527.053c-0.726,0.384-1.536,0.588-2.418,0.588c-2.016,0-3.516-0.222-4.554-0.69
					c-1.23-0.51-2.292-1.53-3.21-3.06c-0.438-0.726-0.846-1.77-1.302-3.144c-0.186-0.606-0.282-1.71-0.282-3.294
					c0-2.472,1.116-5.316,3.372-8.55c0.696-0.75,1.524-1.68,2.514-2.79h-7.398v-2.706h12.906v2.652
					c-1.74,0.594-3.294,1.68-4.68,3.264c-1.23,1.392-2.052,2.568-2.46,3.54c-0.846,1.992-1.254,3.366-1.254,4.182
					c0,1.416,0.096,2.556,0.294,3.408c0.102,0.528,0.606,1.488,1.5,2.898c0.27,0.39,0.996,0.786,2.166,1.11
					c0.996,0.282,1.854,0.42,2.556,0.42c0.6,0,1.356-0.348,2.25-1.038V527.053z"/>
				<path fill="#046938" d="M181.667,506.111h-2.67v20.07h-3.072v-13.848c0-1.068-0.822-2.508-2.448-4.314
					c-0.906-1.014-2.25-1.536-4.032-1.536c-1.686,0-2.796,0.732-3.33,2.16c-0.15,0.396-0.222,0.792-0.222,1.182
					c0,0.918,0.288,1.686,0.858,2.31c0.564,0.618,1.308,0.936,2.244,0.936c0.648,0,1.434-0.186,2.292-0.588l1.416,3.012
					c-1.278,0.696-2.49,1.038-3.6,1.038c-1.5,0-2.814-0.486-3.96-1.446c-1.626-1.392-2.454-3.168-2.454-5.31
					c0-1.812,0.57-3.36,1.728-4.656c1.158-1.296,2.622-1.938,4.404-1.938c0.192-0.06,0.516-0.084,0.966-0.084
					c2.472,0,4.5,1.158,6.138,3.45v-3.15h5.742V506.111z"/>
				<path fill="#046938" d="M203.589,506.112h-2.346v20.118h-2.748c-0.066-0.15-0.21-0.36-0.42-0.642
					c-0.942-1.17-2.526-2.532-4.71-4.08c-1.212-0.84-2.874-1.674-5.016-2.508c-2.286-0.9-4.062-1.332-5.352-1.332l-0.918-3.426
					c2.838-1.854,6.678-3.774,11.478-5.718c1.704-0.666,3.24-1.254,4.644-1.758v-0.654h-17.538V503.4h22.926V506.112z
					 M198.201,521.592v-11.34c-1.512,0.522-2.706,0.936-3.582,1.272c-1.374,0.516-2.544,1.044-3.516,1.542
					c-0.48,0.264-1.326,0.72-2.556,1.422c-0.528,0.306-0.942,0.552-1.284,0.744c0.222,0.09,0.666,0.246,1.332,0.474
					c2.952,1.08,5.622,2.604,8.028,4.536C197.217,520.728,197.745,521.178,198.201,521.592 M193.515,525.084l-1.866,1.92
					c-0.594-0.708-1.776-1.548-3.546-2.49c-0.096-0.042-0.27-0.114-0.552-0.252l1.338-2.526c0.078,0.042,0.252,0.12,0.51,0.228
					c1.362,0.642,2.406,1.35,3.168,2.1C192.735,524.214,193.053,524.568,193.515,525.084"/>
			</g>
			<g>
				<path fill="#046938" d="M227.031,506.1c-0.198,0.024-0.468,0.066-0.834,0.084c-1.272,0.258-2.412,0.792-3.408,1.638
					c-2.406,1.986-3.9,4.602-4.524,7.818c-0.084,0.432-0.114,0.876-0.114,1.332c0,1.884,0.492,3.564,1.452,5.082
					c0.642,0.96,1.464,1.458,2.448,1.458c0.684,0,1.356-0.234,2.064-0.672l1.008,2.724c-0.93,0.552-1.902,0.816-2.94,0.816
					c-1.41,0-2.778-0.546-4.086-1.614c-0.744-0.612-1.47-1.812-2.166-3.63c-0.342-0.864-0.492-2.178-0.492-3.948v-1.302
					c0-2.808,1.47-5.958,4.404-9.486c0.276-0.324,0.888-0.96,1.884-1.926c0.312-0.294,0.684-0.666,1.176-1.074h4.128V506.1z"/>
				<path fill="#046938" d="M244.515,506.111h-14.814v8.31l4.254-2.766c0.648-0.42,1.89-1.002,3.714-1.74
					c0.762-0.312,1.524-0.63,2.286-0.942l2.766,3.594c-0.75,1.818-1.2,3.024-1.368,3.648c-0.426,1.38-0.624,2.682-0.624,3.864
					c0,1.65,0.402,3.6,1.242,5.85l-2.34,1.086c-1.05-2.79-1.596-4.74-1.596-5.844c0-2.346,0.09-4.02,0.216-5.052
					c0.054-0.414,0.24-1.374,0.552-2.874c-2.376,0.942-4.83,2.442-7.35,4.512l-0.672,0.528c-0.234,0.204-0.828,0.684-1.746,1.458
					l-2.424-2.244v-11.388h-1.668V503.4h19.572V506.111z"/>
				<polygon fill="#046938" points="252.068,506.111 249.446,506.111 249.446,526.182 246.344,526.182 246.344,506.111 
					243.44,506.111 243.44,503.4 252.068,503.4 				"/>
				<path fill="#046938" d="M274.347,506.112h-2.334v20.118h-2.742c-0.072-0.15-0.216-0.36-0.426-0.642
					c-0.936-1.17-2.526-2.532-4.704-4.08c-1.218-0.84-2.892-1.674-5.01-2.508c-2.292-0.9-4.08-1.332-5.364-1.332l-0.906-3.426
					c2.832-1.854,6.666-3.774,11.478-5.718c1.692-0.666,3.264-1.254,4.644-1.758v-0.654h-17.538V503.4h22.902V506.112z
					 M268.982,521.592v-11.34c-1.524,0.522-2.7,0.936-3.606,1.272c-1.362,0.516-2.532,1.044-3.504,1.542
					c-0.474,0.264-1.32,0.72-2.544,1.422c-0.528,0.306-0.96,0.552-1.302,0.744c0.222,0.09,0.69,0.246,1.35,0.474
					c2.94,1.08,5.61,2.604,8.004,4.536C267.992,520.728,268.526,521.178,268.982,521.592 M264.297,525.084l-1.872,1.92
					c-0.6-0.708-1.776-1.548-3.552-2.49c-0.096-0.042-0.27-0.114-0.54-0.252l1.332-2.526c0.084,0.042,0.24,0.12,0.486,0.228
					c1.38,0.642,2.424,1.35,3.18,2.1C263.51,524.214,263.817,524.568,264.297,525.084"/>
				<path fill="#046938" d="M286.539,527.053c-0.72,0.384-1.536,0.588-2.424,0.588c-1.998,0-3.516-0.222-4.53-0.69
					c-1.254-0.51-2.322-1.53-3.24-3.06c-0.414-0.726-0.84-1.77-1.29-3.144c-0.186-0.606-0.276-1.71-0.276-3.294
					c0-2.472,1.122-5.316,3.372-8.55c0.69-0.75,1.518-1.68,2.508-2.79h-7.38v-2.706h12.876v2.652
					c-1.722,0.594-3.27,1.68-4.668,3.264c-1.218,1.392-2.052,2.568-2.46,3.54c-0.84,1.992-1.266,3.366-1.266,4.182
					c0,1.416,0.12,2.556,0.318,3.408c0.102,0.528,0.588,1.488,1.506,2.898c0.258,0.39,0.996,0.786,2.148,1.11
					c1.014,0.282,1.854,0.42,2.556,0.42c0.6,0,1.356-0.348,2.25-1.038V527.053z"/>
				<path fill="#046938" d="M303.73,506.111h-2.508v19.818h-3.084v-13.398c-0.114-0.558-0.468-1.302-1.038-2.268
					c-0.6-0.93-1.116-1.62-1.596-2.076c-1.23-1.17-2.712-1.746-4.464-1.746c-0.624,0-1.212,0.21-1.788,0.63
					c-0.066,0.012-0.57,0.444-1.506,1.242c0.336-0.138,0.9-0.198,1.71-0.198c1.332,0,2.466,0.33,3.378,0.996
					c1.026,0.75,1.554,1.752,1.554,3.048c0,0.786-0.258,1.686-0.726,2.754c-0.462,1.068-0.996,1.83-1.572,2.322
					c-1.644,1.404-2.904,2.238-3.792,2.508l-2.004-2.58c1.014-0.246,2.214-1.032,3.582-2.346c1.002-0.93,1.494-1.848,1.494-2.754
					c0-0.468-0.306-0.828-0.954-1.08c-0.48-0.198-0.984-0.27-1.548-0.27c-0.252,0-0.624-0.06-1.158-0.168
					c-0.504-0.084-0.876-0.144-1.128-0.144c-0.402,0-0.744,0.084-1.05,0.252l-1.5-2.832c0.48-0.396,1.146-1.122,2.004-2.166
					c0.282-0.54,1.008-1.032,2.208-1.47c1.074-0.42,1.986-0.63,2.664-0.63c3.108,0,5.502,1.362,7.23,4.05V503.4h5.592V506.111z"/>
				<polygon fill="#046938" points="311.781,506.111 309.159,506.111 309.159,526.182 306.069,526.182 306.069,506.111 
					303.159,506.111 303.159,503.4 311.781,503.4 				"/>
				<path fill="#046938" d="M338.234,506.109h-11.94v8.1l7.644-2.808l2.424,2.172c0.054,0.474,0.108,1.032,0.21,1.662v0.834
					c0,2.49-0.606,4.584-1.836,6.306c-1.284,1.818-3.102,2.97-5.478,3.462c-0.906,0.21-1.848,0.294-2.784,0.294
					c-2.892,0-5.556-1.044-7.98-3.132c-1.95-1.656-3.696-4.65-5.25-8.916l2.202-1.878c0.282,0.972,0.75,2.154,1.446,3.588
					c0.69,1.59,1.332,2.664,1.812,3.288c2.286,2.784,4.902,4.17,7.806,4.17c1.794,0,3.378-0.66,4.8-1.974
					c1.416-1.32,2.13-2.862,2.13-4.62c0-0.492-0.108-1.11-0.33-1.836l-7.386,3.012l-2.478-2.346v-9.378h-11.994v-2.712h26.982
					V506.109z M329.025,530.469c-0.876,0.408-1.68,0.648-2.436,0.648c-1.416,0-2.448-0.336-3.078-0.984l0.252-2.496
					c0.66,0.468,1.494,0.708,2.508,0.708c0.51,0,1.386-0.144,2.574-0.42L329.025,530.469z"/>
				<polygon fill="#046938" points="346.293,506.111 343.671,506.111 343.671,526.182 340.575,526.182 340.575,506.111 
					337.659,506.111 337.659,503.4 346.293,503.4 				"/>
				<path fill="#046938" d="M368.955,506.112h-2.34v20.064h-2.922c-1.56-1.308-3.96-2.634-7.182-3.96
					c-1.584-0.66-2.916-1.152-4.044-1.422c-1.11-0.282-2.466-0.594-4.05-0.96l-0.918-3.246l8.52-3.678
					c-0.69-1.116-1.968-2.076-3.798-2.874c-1.698-0.762-3.258-1.14-4.722-1.14v-2.784h-1.83v-2.706h23.286V506.112z
					 M363.525,522.588v-16.476h-11.61c1.494,0.834,2.526,1.452,3.156,1.872c2.19,1.446,3.594,2.736,4.194,3.846v3.162l-5.838,2.676
					l3.846,1.5c1.5,0.576,2.742,1.188,3.714,1.782C361.671,521.418,362.511,521.946,363.525,522.588 M359.529,527.1l-1.308,2.298
					l-2.16-1.056c-0.312-0.114-0.954-0.258-1.914-0.456c-0.12-0.03-0.318-0.072-0.588-0.114l0.588-2.76
					c0.192,0.024,0.606,0.072,1.242,0.168c0.738,0.186,1.572,0.498,2.55,0.924C358.065,526.176,358.599,526.518,359.529,527.1"/>
			</g>
			<g>
				<path fill="#046938" d="M392.289,506.1c-0.198,0.024-0.486,0.066-0.846,0.084c-1.284,0.258-2.424,0.792-3.414,1.638
					c-2.394,1.986-3.906,4.602-4.518,7.818c-0.084,0.432-0.126,0.876-0.126,1.332c0,1.884,0.504,3.564,1.464,5.082
					c0.642,0.96,1.464,1.458,2.46,1.458c0.678,0,1.35-0.234,2.058-0.672l1.002,2.724c-0.93,0.552-1.902,0.816-2.934,0.816
					c-1.416,0-2.778-0.546-4.086-1.614c-0.744-0.612-1.464-1.812-2.172-3.63c-0.336-0.864-0.504-2.178-0.504-3.948v-1.302
					c0-2.808,1.494-5.958,4.446-9.486c0.246-0.324,0.864-0.96,1.86-1.926c0.312-0.294,0.684-0.666,1.164-1.074h4.146V506.1z"/>
				<path fill="#046938" d="M411.894,506.111h-2.166v19.818h-3.09v-10.182c-0.336-1.704-1.062-2.556-2.166-2.556
					c-0.942,0-1.698,0.552-2.268,1.626l-2.484,4.842c-1.224,2.394-2.862,3.588-4.854,3.588c-0.438,0-1.254-0.252-2.424-0.726
					c-0.216-0.168-0.534-0.348-0.906-0.6v-3.21l0.624,0.618c0.81,0.612,1.602,0.918,2.376,0.918c0.942,0,1.836-0.786,2.676-2.358
					c0.648-1.266,1.074-2.496,1.23-3.642c0-0.786-0.186-1.716-0.582-2.82c-0.372-1.11-0.828-1.902-1.332-2.442
					c-0.984-1.026-2.268-1.98-3.912-2.874h-2.556v-2.706h21.834V506.111z M406.638,511.655v-5.544h-9.024
					c0.312,0.156,0.708,0.522,1.176,1.086c1.362,1.584,2.112,3.12,2.238,4.632c0.984-1.068,2.004-1.602,3.048-1.602
					C405.402,510.227,406.236,510.719,406.638,511.655"/>
				<path fill="#046938" d="M434.724,506.112h-2.754v20.118h-2.76c-0.054-0.156-0.192-0.36-0.42-0.642
					c-0.936-1.164-2.514-2.532-4.71-4.08c-1.194-0.864-2.928-1.728-5.178-2.592c-2.388-0.948-4.236-1.416-5.508-1.416l-0.912-3.42
					c0.75-0.618,3.186-1.836,7.326-3.678c1.776-0.774,3.666-1.56,5.706-2.334l3.402-1.302v-0.654h-17.868v-2.718h23.676V506.112z
					 M428.916,521.592v-11.37c-0.894,0.282-1.86,0.648-2.916,1.092c-1.23,0.564-3.456,1.572-6.678,3.012l-1.674,0.762l2.388,0.87
					c2.13,0.804,4.572,2.256,7.296,4.332C428.052,520.854,428.574,521.274,428.916,521.592"/>
				<polygon fill="#046938" points="442.264,506.111 439.641,506.111 439.641,526.182 436.563,526.182 436.563,506.111 
					433.624,506.111 433.624,503.4 442.264,503.4 				"/>
			</g>
		</g>
	</g>
</g>
</svg>
