<svg width="135" height="113" viewBox="0 0 135 113" fill="none" xmlns="http://www.w3.org/2000/svg">
<path d="M98.7772 91.8031H27.3863C26.5119 91.8031 25.8047 91.1085 25.8047 90.2533V2.37762C25.8047 1.52244 26.5136 0.826172 27.3863 0.826172H76.2403L100.36 24.4616V90.2533C100.359 91.1085 99.6499 91.8031 98.7772 91.8031Z" fill="url(#paint0_linear_530_5661)"/>
<path d="M78.3783 24.4607H100.358L76.2383 0.825195V22.3637C76.24 23.5236 77.1963 24.4607 78.3783 24.4607Z" fill="#198754"/>
<path d="M84.1219 32.1172H42.0391V34.555H84.1219V32.1172Z" fill="#198754"/>
<path d="M74.3331 40.6182H42.0391V43.0559H74.3331V40.6182Z" fill="#198754"/>
<path d="M74.3331 59.8975H42.0391V62.3352H74.3331V59.8975Z" fill="#198754"/>
<path d="M78.9057 70.4258H42.0391V72.8619H78.9057V70.4258Z" fill="#198754"/>
<path d="M118.649 8.68338L89.8477 52.417L101.394 59.7186L130.195 15.985L118.649 8.68338Z" fill="#4E9F46"/>
<path d="M131.357 1.96558L131.242 1.89183C128.085 -0.103596 123.874 0.784371 121.836 3.87744L118.676 8.67433L130.223 15.9778L133.383 11.1809C135.421 8.08784 134.514 3.96101 131.357 1.96558Z" fill="#EF4F32"/>
<path d="M118.653 8.68616L117.344 10.6738L128.89 17.9754L130.199 15.9878L118.653 8.68616Z" fill="#25783C"/>
<path d="M109.376 35.2804L109.322 35.2476C107.871 34.3302 107.455 32.4347 108.389 31.0127L123.53 8.02271C124.466 6.60068 126.401 6.19274 127.852 7.11017L127.905 7.14293C129.357 8.06037 129.773 9.95587 128.837 11.3779L113.696 34.3679C112.761 35.7899 110.825 36.1978 109.376 35.2804Z" fill="#FFC633"/>
<path d="M89.3191 69.8185L85.4688 67.3824L89.8775 52.4102L101.425 59.712L89.3191 69.8185Z" fill="#999999"/>
<path d="M102.565 57.9812L91.0152 50.6777L89.875 52.411L101.423 59.7129L102.565 57.9812Z" fill="#8B8A8A"/>
<path d="M84.3957 73.0595L84.3773 73.048C83.8372 72.7072 83.6166 72.0405 83.8506 71.454L85.469 67.3828L89.214 69.7518L86.0959 72.8727C85.6445 73.3232 84.934 73.4002 84.3957 73.0595Z" fill="#5C5B5B"/>
<path d="M51.2911 82.0099V79.5896C51.2911 78.5065 50.3945 77.6279 49.2892 77.6279H32.7363C31.631 77.6279 30.7344 78.5065 30.7344 79.5896V82.0099H51.2911Z" fill="#472B12"/>
<path d="M53.0248 83.4291C53.0248 84.2138 52.3763 84.8492 51.5756 84.8492H30.4493C29.6504 84.8492 29 84.2138 29 83.4291C29 82.6463 29.6485 82.0107 30.4493 82.0107H51.5756C52.3763 82.0089 53.0248 82.6444 53.0248 83.4291Z" fill="#B54F26"/>
<path d="M25.9169 58.0232L19.957 68.2715L30.7568 74.3022L36.7167 64.0539L25.9169 58.0232Z" fill="#B54F26"/>
<path d="M39.862 63.5354C38.4786 62.7637 36.7172 63.237 35.9296 64.5927L30.8168 73.3843C30.0273 74.7418 30.5104 76.4678 31.8939 77.2396C33.2773 78.0132 35.0386 77.5398 35.8281 76.1823L40.941 67.3906C41.7267 66.0349 41.2436 64.3091 39.862 63.5354Z" fill="#472B12"/>
<path d="M24.8308 55.1447C23.4473 54.3711 21.686 54.8463 20.8984 56.2001L15.7855 64.9919C14.996 66.3494 15.4791 68.0752 16.8626 68.847C18.2461 69.6188 20.0074 69.1473 20.795 67.7898L25.9079 58.9981C26.6955 57.6425 26.2124 55.9165 24.8308 55.1447Z" fill="#472B12"/>
<path d="M24.075 76.9276L22.5938 76.1006L4.38672 107.709L5.86795 108.537L24.075 76.9276Z" fill="#623613"/>
<path d="M22.5946 76.1015L21.1133 75.2744L2.90625 106.882L4.38748 107.709L22.5946 76.1015Z" fill="#472B12"/>
<path d="M5.66946 108.426L4.38747 107.71L2.40625 111.118L3.68822 111.834C4.64876 112.37 5.86871 112.035 6.41571 111.095C6.69203 110.622 6.74467 110.093 6.60933 109.609C6.47399 109.125 6.15255 108.697 5.66946 108.426Z" fill="#623613"/>
<path d="M4.38701 107.709L3.11445 106.998C2.15579 106.462 0.930198 106.785 0.383197 107.724C0.108756 108.197 0.0542474 108.726 0.198987 109.214C0.334327 109.699 0.657637 110.139 1.13509 110.404L2.40767 111.115L4.38701 107.709Z" fill="#472B12"/>
<path d="M27.6239 72.5756L25.3739 71.3193L22.5938 76.1029L24.075 76.9299L27.6239 72.5756Z" fill="#623613"/>
<path d="M25.3746 71.3177L23.1265 70.0615L21.1133 75.2742L22.5945 76.1013L25.3746 71.3177Z" fill="#472B12"/>
<path d="M23.3677 63.3906L22.3242 65.1846L32.3433 70.7805L33.3868 68.9865L23.3677 63.3906Z" fill="#F5841F"/>
<defs>
<linearGradient id="paint0_linear_530_5661" x1="63.0826" y1="0.826172" x2="63.0826" y2="91.8031" gradientUnits="userSpaceOnUse">
<stop stop-color="#ACFF9E"/>
<stop offset="0.489583" stop-color="#CEFFD3"/>
<stop offset="1" stop-color="#74FF82"/>
</linearGradient>
</defs>
</svg>
