<svg width="97" height="127" viewBox="0 0 97 127" fill="none" xmlns="http://www.w3.org/2000/svg">
<path d="M79.349 22.3057L81.189 25.3096L76.7434 27.5634C76.7434 27.5634 71.9941 35.1317 64.9167 37.3253L61.723 46.4867L52.6791 41.6798L52.0664 30.4159L79.349 22.3057Z" fill="#F39C56"/>
<path d="M46.5491 24.1084C34.6856 40.9947 34.4134 36.2858 47.7747 50.5416L50.5329 40.1793L46.5491 24.1084Z" fill="#F39C56"/>
<path d="M73.5557 39.1768H40.7812V64.8236H73.5557V39.1768Z" fill="#138C54"/>
<path d="M73.5557 64.8223H40.7812V84.3272H73.5557V64.8223Z" fill="#0F6800"/>
<path d="M88.5722 64.8223V114.043H25.7656V64.8223H40.7826V84.3272H73.5571V64.8223H88.5722Z" fill="#DAF7FF"/>
<path d="M73.4922 64.8223L41.2251 114.041H29.3633L61.6321 64.8223H73.4922Z" fill="#A7DCE5"/>
<path d="M89.5084 85.1895V103.282L82.4556 114.042H70.5938L89.5084 85.1895Z" fill="#A7DCE5"/>
<path d="M83.1047 64.8223L50.8393 114.041H44.9102L77.179 64.8223H83.1047Z" fill="#A7DCE5"/>
<path d="M79.899 59.7871V64.8229H88.5707V114.04H25.7641V64.8229H34.4392V59.7871H20.625V119.078H93.7114V59.7871H79.899Z" fill="#726576"/>
<path d="M79.3475 22.3059L75.0565 24.5597C67.6999 35.9733 55.3939 33.8709 55.3939 33.8709L54.3633 38.5264L56.6633 41.9828C58.9615 45.5855 57.5833 46.936 57.5833 46.936C56.2419 48.4621 54.5142 48.512 53.4432 47.8393C52.5004 46.6883 51.6541 45.7747 50.9009 45.028C44.5153 38.7122 44.6698 44.6513 46.5467 24.1073C46.5467 24.1073 64.4781 14.0443 64.6344 13.5952L72.7583 9.54004L79.3475 22.3059Z" fill="#FAB67A"/>
<path d="M74.9613 6.89248L62.375 13.3115L73.5665 34.3825L86.1529 27.9635L74.9613 6.89248Z" fill="#5AC8E7"/>
<path d="M83.8497 0.773401L64.6953 10.54L77.2452 34.1736L96.3996 24.4069L83.8497 0.773401Z" fill="#2D2D2D"/>
<path d="M86.6233 22.5573C86.0281 21.439 86.474 20.0592 87.6153 19.4759C88.7565 18.8944 90.1646 19.328 90.7598 20.4481C91.355 21.5681 90.9108 22.9461 89.7678 23.5293C88.6248 24.1109 87.2185 23.6773 86.6233 22.5573Z" fill="#ADCAC6"/>
<path d="M56.3591 47.9098C54.8 48.6943 53.4447 47.841 53.4447 47.841C52.5018 46.69 51.6556 45.7765 50.9023 45.0298C51.3097 44.7855 51.7732 44.665 52.2349 44.665C52.9284 44.665 53.6219 44.9386 54.1276 45.4806C56.0168 47.497 56.1871 47.6449 56.3591 47.9098Z" fill="#F37B3E"/>
<path d="M26.4551 25.6328C26.4551 29.7745 23.029 33.1328 18.8037 33.1328C14.5784 33.1328 11.1523 29.7745 11.1523 25.6328C11.1523 21.4911 14.5784 18.1328 18.8037 18.1328C23.029 18.1328 26.4551 21.4911 26.4551 25.6328Z" fill="#D10A0A"/>
<path d="M19.7011 100.91V100.55C19.7011 99.0243 18.4387 97.7891 16.8814 97.7891H7.80411C6.24677 97.7891 4.98438 99.026 4.98438 100.55V100.91V103.547V126.252H36.6107V100.91H19.7011Z" fill="#EB7523"/>
<path d="M34.6048 103.126H6.80078V122.694H34.6048V103.126Z" fill="white"/>
<path d="M35.0705 123.15H6.33594V102.67H35.0705V123.15ZM7.26645 122.24H34.1399V103.583H7.26645V122.24Z" fill="#545454"/>
<path d="M43.0598 106.685H42.1486C41.9327 116.892 27.6233 125.13 10.0009 125.13C8.7508 125.13 7.52006 125.087 6.30859 125.006C6.81249 125.756 7.67806 126.253 8.66479 126.253H37.9032C39.4605 126.253 40.5315 125.505 41.0091 123.49L45.8813 109.446C45.8795 107.922 44.6172 106.685 43.0598 106.685Z" fill="#FBB116"/>
<path d="M9.39484 105.764L31.3891 105.738C31.5506 105.738 31.6805 105.675 31.6805 105.597C31.6805 105.52 31.5489 105.458 31.3891 105.458H31.3873L9.39304 105.484C9.23152 105.484 9.10156 105.547 9.10156 105.625C9.10332 105.702 9.23507 105.764 9.39484 105.764Z" fill="#515252"/>
<path d="M31.3873 108.594L9.39304 108.62C9.23152 108.62 9.10156 108.683 9.10156 108.761C9.10156 108.838 9.23327 108.9 9.39304 108.9L31.3873 108.874C31.5488 108.874 31.6787 108.811 31.6787 108.733C31.6769 108.656 31.5471 108.594 31.3873 108.594Z" fill="#515252"/>
<path d="M26.1876 110.16L14.5944 110.186C14.4329 110.186 14.3029 110.25 14.3047 110.327C14.3047 110.404 14.4346 110.468 14.5944 110.468H14.5962L26.1876 110.442C26.3492 110.442 26.4791 110.379 26.4773 110.301C26.4773 110.222 26.3474 110.16 26.1876 110.16Z" fill="#515252"/>
<path d="M31.3873 107.025L9.39304 107.051C9.23152 107.051 9.10156 107.115 9.10156 107.192C9.10156 107.27 9.23327 107.333 9.39304 107.333L31.3873 107.306C31.5488 107.306 31.6787 107.242 31.6787 107.165C31.6769 107.087 31.5471 107.025 31.3873 107.025Z" fill="#515252"/>
<path d="M42.1473 106.685H13.8219C12.2645 106.685 11.4323 107.741 10.7159 109.446L5.84375 123.49C5.84375 124.049 6.01408 124.57 6.30729 125.006C7.51876 125.087 8.7495 125.13 9.99959 125.13C27.622 125.128 41.9314 116.892 42.1473 106.685Z" fill="#FADE39"/>
<path d="M6.40234 125.129C6.91502 125.808 7.73318 126.252 8.66372 126.252H37.9022C38.9276 126.252 39.7387 125.925 40.3128 125.129H6.40234Z" fill="#EB7523"/>
<path d="M36.2342 19.4291C34.9852 15.2763 32.2603 11.7049 28.5575 9.36768C24.8548 7.03051 20.4216 6.08371 16.0684 6.70037C11.7152 7.31703 7.73274 9.45596 4.84906 12.7261C1.96537 15.9963 0.373086 20.1793 0.363281 24.5105C0.386611 27.7698 1.12135 30.986 2.51769 33.9412C3.61436 36.2893 4.99608 38.4978 6.63261 40.5183C9.86994 44.5437 13.7348 48.0383 18.0833 50.8719C18.2545 50.9773 18.4523 51.0332 18.6542 51.0332C18.8561 51.0332 19.0539 50.9773 19.2251 50.8719C21.9099 49.1358 24.4108 47.1385 26.6902 44.9101C28.1173 43.5397 29.4489 42.0759 30.6758 40.5289C32.3254 38.5054 33.7215 36.2935 34.8338 33.9412C36.2302 30.986 36.9649 27.7698 36.9882 24.5105C36.9916 22.7894 36.7376 21.0772 36.2342 19.4291ZM32.8518 33.0713C31.8193 35.2659 30.5247 37.3315 28.9954 39.2241C27.7353 40.7991 26.3677 42.2877 24.902 43.6796C22.9663 45.5135 20.8842 47.1915 18.6758 48.6973C14.783 46.0506 11.306 42.8552 8.35614 39.2135C6.82475 37.3261 5.52994 35.2639 4.49975 33.0713C3.22524 30.39 2.54936 27.4708 2.51769 24.5105C2.51922 20.7579 3.86737 17.1267 6.32399 14.2581C8.78061 11.3896 12.1876 9.46829 15.9432 8.83368C19.6988 8.19908 23.5613 8.89197 26.8484 10.79C30.1355 12.688 32.6358 15.669 33.9074 19.2063C34.525 20.9084 34.8384 22.703 34.8338 24.5105C34.8022 27.4708 34.1263 30.39 32.8518 33.0713Z" fill="#198754"/>
</svg>
