<svg width="164" height="111" viewBox="0 0 164 111" fill="none" xmlns="http://www.w3.org/2000/svg">
<path d="M99.5258 47.0234L97.3125 47.833L80.3477 15.25H82.984L82.9865 15.2524L99.5258 47.0234Z" fill="#EA9CFF"/>
<path d="M127.887 47.0234L130.102 47.833L147.065 15.25H144.431L144.426 15.2524L127.887 47.0234Z" fill="#EA9CFF"/>
<path d="M35.2234 38.0717L27.2852 51.7217L41.6697 59.7542L49.6079 46.1042L35.2234 38.0717Z" fill="#B54F26"/>
<path d="M53.7989 45.4133C51.9562 44.3853 49.6103 45.0158 48.5612 46.8214L41.7513 58.5313C40.6997 60.3394 41.3432 62.6383 43.1859 63.6662C45.0286 64.6966 47.3745 64.0662 48.426 62.258L55.236 50.5481C56.2826 48.7424 55.6391 46.4437 53.7989 45.4133Z" fill="#472B12"/>
<path d="M33.7794 34.2377C31.9367 33.2073 29.5908 33.8402 28.5417 35.6434L21.7317 47.3534C20.6802 49.1615 21.3237 51.4603 23.1664 52.4882C25.0091 53.5162 27.355 52.8882 28.404 51.0801L35.214 39.3702C36.2631 37.5645 35.6196 35.2656 33.7794 34.2377Z" fill="#472B12"/>
<path d="M32.7782 63.2509L30.8053 62.1494L6.55469 104.249L8.52758 105.353L32.7782 63.2509Z" fill="#623613"/>
<path d="M30.8016 62.1504L28.8287 61.0488L4.57812 103.148L6.55102 104.25L30.8016 62.1504Z" fill="#472B12"/>
<path d="M8.26044 105.204L6.55291 104.25L3.91406 108.789L5.62155 109.743C6.90093 110.457 8.52582 110.01 9.25439 108.759C9.62243 108.129 9.69254 107.425 9.51227 106.779C9.33201 106.134 8.90388 105.565 8.26044 105.204Z" fill="#623613"/>
<path d="M6.553 104.249L4.85804 103.302C3.58117 102.588 1.94877 103.017 1.2202 104.269C0.854661 104.899 0.782059 105.603 0.974842 106.253C1.15511 106.899 1.58573 107.485 2.22167 107.838L3.91666 108.785L6.553 104.249Z" fill="#472B12"/>
<path d="M37.5045 57.4535L34.5076 55.7803L30.8047 62.1517L32.7776 63.2532L37.5045 57.4535Z" fill="#623613"/>
<path d="M34.5078 55.7786L31.5135 54.1055L28.832 61.0484L30.8049 62.15L34.5078 55.7786Z" fill="#472B12"/>
<path d="M31.8313 45.2209L30.4414 47.6104L43.7861 55.0637L45.176 52.6743L31.8313 45.2209Z" fill="#F5841F"/>
<path d="M68.2434 70.0211V66.7974C68.2434 65.3548 67.0492 64.1846 65.577 64.1846H43.5297C42.0575 64.1846 40.8633 65.3548 40.8633 66.7974V70.0211H68.2434Z" fill="#472B12"/>
<path d="M70.558 71.9106C70.558 72.9558 69.6943 73.8022 68.6277 73.8022H40.4889C39.4249 73.8022 38.5586 72.9558 38.5586 71.9106C38.5586 70.8679 39.4224 70.0215 40.4889 70.0215H68.6277C69.6943 70.019 70.558 70.8655 70.558 71.9106Z" fill="#B54F26"/>
<path d="M84.4813 13.6875C84.0606 14.7621 82.909 15.5546 81.6646 15.5497C80.4203 15.5448 79.3688 14.772 78.9557 13.6949L76.9102 13.6875C77.3733 15.8391 79.3187 17.4608 81.6546 17.4682C83.4372 17.4755 84.992 16.5384 85.8458 15.14L94.3357 15.1719L113.702 17.5835L113.712 13.6875H84.4813Z" fill="#FFC514"/>
<path d="M82.9867 15.2524L81.6673 17.7843L66.0218 47.833L63.8086 47.0234L80.3478 15.25H82.9842L82.9867 15.2524Z" fill="#1E433D"/>
<path d="M64.8359 49.5117C67.9555 55.1299 74.3123 58.9866 81.6681 58.9866C89.0239 58.9866 95.3807 55.1299 98.5003 49.5117H64.8359Z" fill="#EDA120"/>
<path d="M99.5285 47.0225H63.8086V51.544H99.5285V47.0225Z" fill="#A84724"/>
<path d="M142.931 13.6875C143.351 14.7621 144.501 15.5546 145.745 15.5497C146.989 15.5448 148.041 14.772 148.454 13.6949L150.499 13.6875C150.036 15.8391 148.091 17.4608 145.752 17.4682C143.97 17.4755 142.415 16.5384 141.561 15.14L133.071 15.1719L113.705 17.5835L113.695 13.6875H142.931Z" fill="#F6901E"/>
<path d="M144.426 15.2524L145.745 17.7843L161.391 47.833L163.604 47.0234L147.065 15.25H144.431L144.426 15.2524Z" fill="#1E433D"/>
<path d="M162.582 49.5117C159.463 55.1299 153.106 58.9866 145.75 58.9866C138.394 58.9866 132.038 55.1299 128.918 49.5117H162.582Z" fill="#EDA120"/>
<path d="M163.611 47.0225H127.891V51.544H163.611V47.0225Z" fill="#A84724"/>
<path d="M121.388 64.8105H106.008V68.5838H121.388V64.8105Z" fill="#D47828"/>
<path d="M132.105 68.585H95.3008V73.8007H132.105V68.585Z" fill="#F6901E"/>
<path d="M113.699 0.685547V64.8115H109.125L112.295 9.43426C110.454 8.85281 109.125 7.16241 109.125 5.16783C109.125 2.6924 111.176 0.685547 113.699 0.685547Z" fill="#A84724"/>
<path d="M115.104 9.43426L118.273 64.8115H113.699V0.685547C116.225 0.685547 118.273 2.6924 118.273 5.16783C118.273 7.16241 116.944 8.85281 115.104 9.43426Z" fill="#80381B"/>
<path d="M113.695 64.8105L121.387 68.5838V64.8105H113.695Z" fill="#A84724"/>
<path d="M132.097 68.585V73.8007L121.387 68.585H132.097Z" fill="#D47828"/>
<path d="M132.423 108.711H109.023L114.166 73.7998H132.423C142.222 73.7998 150.164 81.7243 150.164 91.3267C150.164 100.927 142.22 108.711 132.423 108.711Z" fill="#198754"/>
<path d="M130.14 91.2555V91.4052H42.1484V77.0039H115.596C123.63 77.0039 130.14 83.3852 130.14 91.2555Z" fill="#F9F07E"/>
<path d="M130.138 91.2555C130.138 99.1235 123.626 105.502 115.596 105.502H38.8789V108.711H115.596C125.426 108.711 133.41 100.885 133.41 91.2555C133.41 81.6237 125.426 73.7998 115.596 73.7998H38.8789V77.0064H115.596C123.628 77.0064 130.138 83.3876 130.138 91.2555Z" fill="#0F6800"/>
<path d="M130.14 91.4062C130.057 99.2079 123.578 105.508 115.596 105.508H42.1484V91.4062H130.14Z" fill="#FCC10F"/>
</svg>
