<svg width="138" height="141" viewBox="0 0 138 141" fill="none" xmlns="http://www.w3.org/2000/svg">
<path d="M43.1952 68.0308L51.5332 63.2623L55.864 72.1826L56.0995 72.6676L56.5654 72.3963L73.1787 62.7233L66.3419 77.7678L66.1014 78.297L66.6606 78.4557L85.6007 83.8307L75.6431 93.6057L75.4087 93.8357L75.5267 94.1422L80.682 107.531L61.2836 102.958L60.6608 102.811L60.6689 103.451L60.9034 121.988L50.063 102.898L49.6686 102.204L49.2162 102.862L36.3833 121.531L37.5566 102.898L37.5969 102.258L36.9665 102.375L17.9727 105.895L31.2766 92.1722L31.7327 91.7017L31.1584 91.386L14.3161 82.1299L33.511 79.9948L34.1558 79.9231L33.9222 79.3179L26.9568 61.2703L42.7496 68.0562L42.9787 68.1546L43.1952 68.0308Z" stroke="#368C72"/>
<path d="M80.154 117.723V115.985C80.154 113.859 78.3952 112.134 76.2235 112.134H22.7646C20.5908 112.134 18.832 113.859 18.832 115.985V117.723H80.154Z" fill="#9E4A23"/>
<path d="M89.049 128.794V123.221C89.049 120.183 86.5383 117.723 83.4378 117.723H15.5524C12.4561 117.723 9.94531 120.183 9.94531 123.221V128.794H89.049Z" fill="#753617"/>
<path d="M92.9012 140.014H6.08822C-0.77214 140.014 -0.92169 128.796 6.08822 128.796H92.9012C99.89 128.794 99.7826 140.014 92.9012 140.014Z" fill="#9E4A23"/>
<path d="M86.9938 79.8223L85.6289 82.7036L137.456 106.271C141.679 97.3519 105.85 82.8564 89.9048 81.1453C89.9238 81.1556 87.0928 79.8677 86.9938 79.8223Z" fill="#9E4A23"/>
<path d="M85.6305 82.7051L84.2656 85.5885L87.1787 86.9136C98.0538 97.0438 133.152 115.366 137.453 106.278C137.457 106.274 85.6369 82.7092 85.6305 82.7051Z" fill="#753617"/>
<path d="M83.2342 85.0853L73.1953 80.5197L75.9252 74.7549L85.9598 79.3205L83.2342 85.0853Z" fill="#753617"/>
<path d="M89.4744 79.3748L85.5418 87.6783C84.0379 90.8528 78.1822 88.2748 79.7199 85.0302L83.6525 76.7267C85.1838 73.4924 90.9825 76.19 89.4744 79.3748Z" fill="#9E4A23"/>
<path d="M72.7334 85.9258L44.7695 73.2074L51.8658 58.2227L79.8317 70.937L72.7334 85.9258Z" fill="#FCEE3B"/>
<path d="M55.1998 59.7849L48.1055 74.7705L55.2074 77.9989L62.3018 63.0132L55.1998 59.7849Z" fill="#FDF4A2"/>
<path d="M86.2281 53.9836L60.9498 42.4891C60.2083 42.1527 59.3279 42.4685 58.9825 43.195L52.4844 56.9166L80.4503 69.633L86.9484 55.9114C87.2917 55.1849 86.9716 54.32 86.2281 53.9836Z" fill="#753617"/>
<path d="M81.7567 71.8144L49.9404 57.3437C47.1769 56.0867 49.1442 52.0763 51.853 53.3085L83.6713 67.7772C86.3822 69.0136 84.516 73.0694 81.7567 71.8144Z" fill="#9E4A23"/>
<path d="M85.4191 64.0868L53.6007 49.6181C50.8371 48.3611 52.8044 44.3507 55.5111 45.5829L87.3275 60.0516C90.0426 61.2839 88.1763 65.3417 85.4191 64.0868Z" fill="#9E4A23"/>
<path d="M38.3731 90.162L63.6492 101.654C64.3928 101.993 65.2711 101.677 65.6165 100.949L72.1146 87.227L44.1529 74.5127L37.6527 88.2343C37.3093 88.9608 37.6338 89.8235 38.3731 90.162Z" fill="#753617"/>
<path d="M42.8402 72.3318L74.6608 86.8005C77.4222 88.0575 75.4569 92.07 72.746 90.8378L40.9298 76.367C38.2168 75.1327 40.083 71.0769 42.8402 72.3318Z" fill="#9E4A23"/>
<path d="M39.1831 80.0583L70.9995 94.527C73.763 95.784 71.7978 99.7964 69.089 98.5642L37.2685 84.0934C34.5576 82.8612 36.4217 78.8034 39.1831 80.0583Z" fill="#9E4A23"/>
<path d="M65.2604 16.2117C63.762 11.2296 60.4929 6.94499 56.0508 4.14111C51.6087 1.33723 46.2903 0.201367 41.0678 0.941167C35.8453 1.68097 31.0676 4.24701 27.6081 8.1702C24.1486 12.0934 22.2383 17.1117 22.2266 22.3077C22.2546 26.2178 23.136 30.0764 24.8112 33.6216C26.1268 36.4386 27.7845 39.0881 29.7478 41.5121C33.6316 46.3413 38.2682 50.5337 43.485 53.9332C43.6904 54.0596 43.9277 54.1266 44.1699 54.1266C44.4122 54.1266 44.6495 54.0596 44.8549 53.9332C48.0757 51.8504 51.076 49.4542 53.8106 46.7809C55.5227 45.1368 57.1201 43.3807 58.5921 41.5248C60.5711 39.0972 62.2459 36.4437 63.5804 33.6216C65.2556 30.0764 66.137 26.2178 66.165 22.3077C66.1691 20.2429 65.8643 18.1889 65.2604 16.2117ZM61.2026 32.578C59.9639 35.2109 58.4108 37.6889 56.5761 39.9594C55.0644 41.8489 53.4237 43.6348 51.6653 45.3046C49.3431 47.5048 46.8452 49.5178 44.1958 51.3242C39.5257 48.1491 35.3544 44.3156 31.8155 39.9467C29.9783 37.6824 28.4249 35.2084 27.189 32.578C25.66 29.3613 24.8492 25.8592 24.8112 22.3077C24.813 17.8058 26.4304 13.4495 29.3775 10.0081C32.3247 6.56672 36.4121 4.2618 40.9176 3.50047C45.4231 2.73915 50.0569 3.5704 54.0004 5.84741C57.9439 8.12441 60.9434 11.7006 62.469 15.9444C63.2099 17.9864 63.5859 20.1393 63.5804 22.3077C63.5424 25.8592 62.7316 29.3613 61.2026 32.578Z" fill="#466551"/>
<circle cx="44.798" cy="23.798" r="7.79796" fill="#0F6800"/>
</svg>
