<svg width="98" height="89" viewBox="0 0 98 89" fill="none" xmlns="http://www.w3.org/2000/svg">
<path d="M84.8314 88.943H0.850463C0.4054 88.943 0.046875 88.5769 0.046875 88.1224V19.0384C0.046875 18.5839 0.4054 18.2178 0.850463 18.2178C1.24608 18.2178 1.65405 18.5208 1.71586 18.9248C2.09911 21.6896 4.46042 23.7727 7.20498 23.7727H84.8314C85.2765 23.7727 85.635 24.1389 85.635 24.5934V39.6172C85.635 40.0717 85.2765 40.4377 84.8314 40.4377H75.1884C70.0949 40.4377 65.9657 44.6671 65.9657 49.856C65.9657 55.0575 70.1073 59.2869 75.1884 59.2869H84.8314C85.2765 59.2869 85.635 59.653 85.635 60.1075V88.1097C85.635 88.5643 85.2765 88.943 84.8314 88.943ZM1.65405 87.2891H84.0278V60.9282H75.1884C69.2171 60.9282 64.3585 55.9665 64.3585 49.856C64.3585 43.7581 69.2171 38.7965 75.1884 38.7965H84.0278V25.414H7.20498C4.99202 25.414 2.97688 24.3661 1.65405 22.6996V87.2891Z" fill="#368C72"/>
<path d="M96.9355 60.9285H75.1892C69.218 60.9285 64.3594 55.9669 64.3594 49.8564C64.3594 43.7585 69.218 38.7969 75.1892 38.7969H96.9355C97.3806 38.7969 97.7391 39.163 97.7391 39.6175V60.1079C97.7391 60.5624 97.3806 60.9285 96.9355 60.9285ZM75.1892 40.4381C70.0957 40.4381 65.9666 44.6675 65.9666 49.8564C65.9666 55.0579 70.1081 59.2872 75.1892 59.2872H96.1319V40.4381H75.1892Z" fill="#368C72"/>
<path d="M77.3526 55.0961C74.5339 55.0961 72.2344 52.7479 72.2344 49.8694C72.2344 46.9909 74.5339 44.6553 77.3526 44.6553C80.1713 44.6553 82.4708 46.9909 82.4708 49.8694C82.4708 52.7479 80.1713 55.0961 77.3526 55.0961ZM77.3526 46.2839C75.4116 46.2839 73.8416 47.8873 73.8416 49.8568C73.8416 51.8389 75.424 53.4422 77.3526 53.4422C79.2812 53.4422 80.8637 51.8389 80.8637 49.8568C80.8637 47.8873 79.2812 46.2839 77.3526 46.2839Z" fill="#368C72"/>
<path d="M97.0954 81.5074H84.8314C84.3864 81.5074 84.0278 81.1413 84.0278 80.6868V60.1081C84.0278 59.6536 84.3864 59.2874 84.8314 59.2874H96.1311V40.4383H84.8314C84.3864 40.4383 84.0278 40.0722 84.0278 39.6177V25.4146H36.3937C36.0599 25.4146 35.7508 25.1999 35.6396 24.8716C35.5283 24.5434 35.6148 24.1899 35.8745 23.9627C38.2976 21.8922 39.6946 18.8622 39.6946 15.6302C39.6946 14.3298 39.4721 13.0799 39.0517 11.8805C38.9652 11.628 39.0023 11.3503 39.1506 11.1231C39.299 10.9084 39.5462 10.7695 39.8059 10.7695H45.3197C45.74 10.7695 46.0986 11.1104 46.1233 11.5396C46.4324 16.2993 50.339 20.0363 55.0246 20.0363C59.7101 20.0363 63.6291 16.2993 63.9258 11.5396C63.9505 11.1104 64.3091 10.7695 64.7294 10.7695H97.0954C97.5405 10.7695 97.899 11.1357 97.899 11.5902V80.6615C97.899 81.1413 97.5405 81.5074 97.0954 81.5074ZM85.635 79.8662H96.2918V60.9287H85.635V79.8662ZM85.635 38.797H96.2918V12.436H65.4464C64.7418 17.688 60.3035 21.7028 55.0246 21.7028C49.7456 21.7028 45.3073 17.688 44.6026 12.436H40.9062C41.1781 13.4713 41.3141 14.5444 41.3141 15.6428C41.3141 18.6601 40.2509 21.526 38.3594 23.7859H84.8438C85.2889 23.7859 85.6474 24.1521 85.6474 24.6066V38.797H85.635ZM21.8426 25.4271C21.8302 25.4271 21.8303 25.4271 21.8179 25.4271H7.20498C3.26122 25.4271 0.046875 22.1447 0.046875 18.1173C0.046875 14.0899 3.26122 10.8074 7.20498 10.8074H18.3934C18.653 10.8074 18.9003 10.9337 19.0486 11.1609C19.197 11.3755 19.234 11.6659 19.1475 11.9184C18.7148 13.1178 18.4923 14.3803 18.4923 15.668C18.4923 18.8495 19.8522 21.8417 22.2135 23.8996C22.4608 24.0384 22.6338 24.3162 22.6338 24.6192C22.6462 25.0611 22.2753 25.4271 21.8426 25.4271ZM7.20498 12.436C4.15135 12.436 1.65405 14.9737 1.65405 18.1047C1.65405 21.2357 4.13899 23.7733 7.20498 23.7733H19.8522C17.9483 21.526 16.8975 18.6602 16.8975 15.6302C16.8975 14.5445 17.0335 13.4713 17.3054 12.4234H7.20498V12.436Z" fill="#368C72"/>
<path d="M84.8314 31.9537H0.850463C0.4054 31.9537 0.046875 31.5876 0.046875 31.1331C0.046875 30.6786 0.4054 30.3125 0.850463 30.3125H84.8314C85.2765 30.3125 85.635 30.6786 85.635 31.1331C85.635 31.5876 85.2765 31.9537 84.8314 31.9537Z" fill="#368C72"/>
<path d="M84.8314 76.8356H0.850463C0.4054 76.8356 0.046875 76.4694 0.046875 76.0149C0.046875 75.5604 0.4054 75.1943 0.850463 75.1943H84.8314C85.2765 75.1943 85.635 75.5604 85.635 76.0149C85.635 76.4694 85.2765 76.8356 84.8314 76.8356Z" fill="#368C72"/>
<path d="M11.1235 41.3094C9.68945 41.3094 8.52734 40.1226 8.52734 38.6581C8.52734 37.1936 9.68945 36.0068 11.1235 36.0068C12.5576 36.0068 13.7197 37.1936 13.7197 38.6581C13.7197 40.1226 12.5576 41.3094 11.1235 41.3094ZM11.1235 37.6607C10.5796 37.6607 10.1345 38.1153 10.1345 38.6708C10.1345 39.2263 10.5796 39.6808 11.1235 39.6808C11.6675 39.6808 12.1126 39.2263 12.1126 38.6708C12.1126 38.1026 11.6675 37.6607 11.1235 37.6607Z" fill="#368C72"/>
<path d="M25.8228 41.3094C24.3887 41.3094 23.2266 40.1226 23.2266 38.6581C23.2266 37.1936 24.3887 36.0068 25.8228 36.0068C27.2569 36.0068 28.419 37.1936 28.419 38.6581C28.4066 40.1226 27.2445 41.3094 25.8228 41.3094ZM25.8228 37.6607C25.2788 37.6607 24.8337 38.1153 24.8337 38.6708C24.8337 39.2263 25.2788 39.6808 25.8228 39.6808C26.3667 39.6808 26.8118 39.2263 26.8118 38.6708C26.7994 38.1026 26.3667 37.6607 25.8228 37.6607Z" fill="#368C72"/>
<path d="M11.1235 71.1297C9.68945 71.1297 8.52734 69.9429 8.52734 68.4784C8.52734 67.0139 9.68945 65.8271 11.1235 65.8271C12.5576 65.8271 13.7197 67.0139 13.7197 68.4784C13.7197 69.9429 12.5576 71.1297 11.1235 71.1297ZM11.1235 67.481C10.5796 67.481 10.1345 67.9356 10.1345 68.4911C10.1345 69.0466 10.5796 69.5011 11.1235 69.5011C11.6675 69.5011 12.1126 69.0466 12.1126 68.4911C12.1126 67.923 11.6675 67.481 11.1235 67.481Z" fill="#368C72"/>
<path d="M25.8228 71.1297C24.3887 71.1297 23.2266 69.9429 23.2266 68.4784C23.2266 67.0139 24.3887 65.8271 25.8228 65.8271C27.2569 65.8271 28.419 67.0139 28.419 68.4784C28.4066 69.9429 27.2445 71.1297 25.8228 71.1297ZM25.8228 67.481C25.2788 67.481 24.8337 67.9356 24.8337 68.4911C24.8337 69.0466 25.2788 69.5011 25.8228 69.5011C26.3667 69.5011 26.8118 69.0466 26.8118 68.4911C26.7994 67.923 26.3667 67.481 25.8228 67.481Z" fill="#368C72"/>
<path d="M36.3921 25.4268H21.8039C21.6184 25.4268 21.433 25.3637 21.2846 25.2374C18.4783 22.8639 16.8711 19.3668 16.8711 15.6424C16.8711 8.76175 22.3478 3.16895 29.0732 3.16895C35.7986 3.16895 41.2754 8.76175 41.2754 15.6424C41.2754 19.3541 39.6682 22.8513 36.8866 25.2248C36.763 25.351 36.5775 25.4268 36.3921 25.4268ZM22.1129 23.7855H36.0954C38.3825 21.7276 39.693 18.7734 39.693 15.6424C39.693 9.67075 34.9332 4.82282 29.098 4.82282C23.2503 4.82282 18.503 9.68337 18.503 15.6424C18.4906 18.7734 19.8135 21.7276 22.1129 23.7855Z" fill="#DEAD2B"/>
<path d="M55.0247 21.7026C49.2265 21.7026 44.5039 16.8798 44.5039 10.9587C44.5039 5.02492 49.2265 0.202148 55.0247 0.202148C60.8352 0.202148 65.5579 5.02492 65.5579 10.9587C65.5455 16.8798 60.8229 21.7026 55.0247 21.7026ZM55.0247 1.85602C50.1043 1.85602 46.1111 5.94656 46.1111 10.9713C46.1111 15.9834 50.1043 20.0739 55.0247 20.0739C59.9451 20.0739 63.9507 15.9961 63.9507 10.9713C63.9383 5.93394 59.9451 1.85602 55.0247 1.85602Z" fill="#DEAD2B"/>
</svg>
