<svg width="126" height="113" viewBox="0 0 126 113" fill="none" xmlns="http://www.w3.org/2000/svg">
<path d="M119.83 56.6919C119.83 87.5899 94.2827 112.611 62.7824 112.611C31.2821 112.611 5.73438 87.5691 5.73438 56.6919C5.73438 25.8147 31.2821 0.772461 62.7824 0.772461C94.2827 0.772461 119.83 25.8147 119.83 56.6919Z" fill="#138C54"/>
<path d="M125.044 30.9219H0.503906V85.6578H125.044V30.9219Z" fill="#F2F2F2"/>
<path d="M82.5049 40.7461H8.78516V41.8051H82.5049V40.7461Z" fill="#198754"/>
<path d="M82.5049 43.835H8.78516V44.894H82.5049V43.835Z" fill="#198754"/>
<path d="M82.5049 46.9521H8.78516V48.0112H82.5049V46.9521Z" fill="#198754"/>
<path d="M82.5049 54.2188H8.78516V55.2778H82.5049V54.2188Z" fill="#198754"/>
<path d="M82.5049 57.3975H8.78516V58.4565H82.5049V57.3975Z" fill="#198754"/>
<path d="M82.5049 60.5508H8.78516V61.6098H82.5049V60.5508Z" fill="#198754"/>
<path d="M82.5049 71.5361H8.78516V72.6159H82.5049V71.5361Z" fill="#198754"/>
<path d="M82.5049 74.7344H8.78516V75.7934H82.5049V74.7344Z" fill="#198754"/>
<path d="M94.2852 65.1201V96.1219L104.771 89.9132L115.236 96.1219V66.4076L94.2852 65.1201Z" fill="#F77B55"/>
<path d="M51.7459 63.626H8.78516V64.9134H51.7459V63.626Z" fill="#198754"/>
<path d="M104.199 48.4878L105.957 47.2627L107.44 48.7993L109.41 47.9479L110.533 49.7544L112.651 49.3184L113.371 51.3118L115.532 51.2911L115.829 53.3883L117.947 53.7828L117.82 55.9008L119.811 56.7106L119.261 58.7663L121.04 59.9499L120.066 61.8395L121.57 63.3554L120.235 65.0373L121.4 66.8023L119.748 68.1728L120.51 70.1454L118.625 71.1629L118.964 73.2601L116.909 73.8623L116.803 75.9803L114.664 76.1672L114.134 78.2229L111.995 77.9945L111.062 79.9049L109.008 79.2404L107.694 80.9431L105.83 79.8841L104.199 81.2753L102.568 79.8841L100.704 80.9431L99.3901 79.2404L97.3353 79.9049L96.4032 77.9945L94.2636 78.2229L93.7341 76.1672L91.5945 75.9803L91.4886 73.8623L89.4337 73.2601L89.7727 71.1629L87.8873 70.1454L88.6499 68.1728L86.9976 66.8023L88.1627 65.0373L86.8281 63.3554L88.311 61.8395L87.3577 59.9499L89.1372 58.7663L88.5652 56.7106L90.5565 55.9008L90.4294 53.7828L92.5478 53.3883L92.8655 51.2911L95.0263 51.3118L95.7465 49.3184L97.8649 49.7544L98.9876 47.9479L100.958 48.7993L102.441 47.2627L104.199 48.4878Z" fill="#F77B55"/>
<path d="M118.478 64.2719C118.478 71.9963 112.08 78.2673 104.2 78.2673C96.2982 78.2673 89.9219 71.9963 89.9219 64.2719C89.9219 56.5474 96.3194 50.2764 104.2 50.2764C112.08 50.2764 118.478 56.5474 118.478 64.2719Z" fill="#FF916E"/>
</svg>
