<svg width="128" height="125" viewBox="0 0 128 125" fill="none" xmlns="http://www.w3.org/2000/svg">
<path d="M62.1163 118.157C62.1163 118.157 59.0404 111.51 64.0367 106.879C69.0329 102.257 69.9251 102.656 71.7774 98.8917C73.6383 95.1271 75.2952 90.9543 78.8809 90.0214C82.4667 89.0803 85.6361 90.5212 88.3891 90.288C91.8219 89.9965 92.7735 87.7893 97.4469 86.9231C101.959 86.0985 105.128 89.4801 107.048 93.1115C108.969 96.7429 107.813 96.8512 113.311 98.0588C118.817 99.2665 120.346 103.214 120.771 106.879C121.187 110.411 127.254 108.836 124.314 118.157H62.1163Z" fill="#7ECBA1"/>
<path d="M101.196 89.4805L94.2031 118.157" stroke="white" stroke-width="1.875" stroke-miterlimit="10"/>
<path d="M114.554 101.816L97.3477 118.158" stroke="white" stroke-width="1.875" stroke-miterlimit="10"/>
<path d="M122.599 112.327L100.379 118.157" stroke="white" stroke-width="1.875" stroke-miterlimit="10"/>
<path d="M79.0195 92.8535L91.8925 118.157" stroke="white" stroke-width="1.875" stroke-miterlimit="10"/>
<path d="M67.2656 108.362L88.814 118.157" stroke="white" stroke-width="1.875" stroke-miterlimit="10"/>
<path d="M108.189 40.9971C118.292 40.9971 126.483 32.9686 126.483 23.065C126.483 13.1613 118.292 5.13281 108.189 5.13281C98.0851 5.13281 89.8945 13.1613 89.8945 23.065C89.8945 32.9686 98.0851 40.9971 108.189 40.9971Z" fill="#FFC000"/>
<path d="M25.3045 97.8331C25.5992 96.0533 24.3662 94.3762 22.5504 94.0873C20.7346 93.7984 19.0237 95.0071 18.7289 96.787C18.4342 98.5669 19.6673 100.244 21.4831 100.533C23.2989 100.822 25.0098 99.613 25.3045 97.8331Z" stroke="#FF478B" stroke-width="3.75" stroke-miterlimit="10"/>
<path d="M49.9166 36.8748C50.5501 36.8748 51.0637 36.3714 51.0637 35.7504C51.0637 35.1294 50.5501 34.626 49.9166 34.626C49.2831 34.626 48.7695 35.1294 48.7695 35.7504C48.7695 36.3714 49.2831 36.8748 49.9166 36.8748Z" fill="#FF4B85"/>
<path d="M99.9964 118.624H94.4648L106.14 19.5762H111.671C113.252 19.5762 114.382 20.8255 114.195 22.3747L103.174 115.825C102.996 117.374 101.577 118.624 99.9964 118.624Z" fill="#466551"/>
<path d="M52.3534 118.624H93.8613C95.5097 118.624 96.9967 117.316 97.1921 115.7L108.179 22.4996C108.374 20.8838 107.185 19.5762 105.536 19.5762H64.0283C62.3799 19.5762 60.8929 20.8838 60.6975 22.4996L49.7109 115.7C49.5239 117.316 50.705 118.624 52.3534 118.624Z" fill="#2E3744"/>
<path d="M52.7031 113.293H94.7633L105.181 24.9062H63.1205L52.7031 113.293Z" fill="white"/>
<path d="M106.574 62.8867C107.313 62.8867 107.984 62.2953 108.069 61.5707L110.567 40.357C110.652 39.6324 110.117 39.041 109.378 39.041C108.638 39.041 107.967 39.6324 107.882 40.357L105.384 61.5707C105.299 62.2953 105.826 62.8867 106.574 62.8867Z" stroke="white" stroke-width="1.59" stroke-miterlimit="10"/>
<path d="M108.699 40.3396C108.665 40.6311 108.877 40.856 109.166 40.856C109.455 40.856 109.727 40.6228 109.753 40.3396C109.786 40.0481 109.574 39.8232 109.285 39.8232C108.996 39.8232 108.733 40.0481 108.699 40.3396Z" stroke="white" stroke-width="1.59" stroke-miterlimit="10"/>
<path d="M82.0531 22.691H89.5984C89.8958 22.691 90.1592 22.4578 90.1847 22.1746C90.2187 21.8831 90.0063 21.6582 89.7174 21.6582H82.172C81.8746 21.6582 81.6112 21.8914 81.5857 22.1746C81.5517 22.4661 81.7557 22.691 82.0531 22.691Z" fill="#58007E"/>
<path d="M78.7643 22.1754C78.7048 22.6668 79.0617 23.0666 79.563 23.0666C80.0643 23.0666 80.5147 22.6668 80.5741 22.1754C80.6336 21.684 80.2768 21.2842 79.7754 21.2842C79.2741 21.2842 78.8153 21.684 78.7643 22.1754Z" fill="#58007E"/>
<path d="M30.5014 28.3387L29.6092 34.627H25.3438L26.2529 28.2471L30.5014 28.3387Z" fill="#FFD7E5"/>
<path d="M51.4874 46.3296L51.0781 67.2227L55.5382 67.3066L55.9475 46.4136L51.4874 46.3296Z" fill="white"/>
<path d="M82.9951 70.8654C83.4709 70.8238 83.7343 70.3074 83.4794 69.9076C80.7434 65.7098 76.6308 53.7495 63.5624 54.4824C52.4653 55.1071 39.6774 56.2898 33.9844 56.8395C32.9987 56.9311 32.7013 58.1971 33.5425 58.7052L35.021 59.6131C36.1681 60.3127 37.5106 60.6292 38.8531 60.5209L49.177 59.6797C51.5647 59.4881 53.8589 60.6375 55.0824 62.6531L64.786 78.6196C64.9135 78.8278 65.1429 78.9445 65.3893 78.9195L82.9951 70.8654Z" fill="#FFBAB3"/>
<path d="M35.5488 66.4846C47.5381 61.1791 55.8141 59.1552 60.4195 58.3889C62.8157 57.9891 65.1184 59.48 65.6792 61.8038L67.0982 67.7423C67.7354 70.4242 65.7981 73.0395 63.0026 73.2644L34.4017 75.5965C34.0023 75.6298 33.5945 75.6131 33.2036 75.5382L3.5151 70.2909C2.64841 70.141 2.29153 69.1166 2.87783 68.4752C3.63406 67.6507 6.57402 66.2098 9.08064 66.3764C13.2782 66.6595 29.363 66.8511 33.5945 66.9011C34.2742 66.8927 34.937 66.7595 35.5488 66.4846Z" fill="#FFBAB3"/>
<path d="M80.0803 64.0195L90.0133 80.6857C90.0133 80.6857 83.5471 91.8048 69.0767 90.4055L63.3242 76.1964L80.0803 64.0195Z" fill="#FFBAB3"/>
<path d="M88.3764 86.2656C88.3764 86.2656 87.0338 88.681 81.0859 91.1047" stroke="#198754" stroke-width="1.875" stroke-miterlimit="10"/>
<path d="M65.832 88.6816C65.832 88.6816 67.7354 92.8544 69.6472 92.6379" stroke="#198754" stroke-width="1.875" stroke-miterlimit="10"/>
<path d="M78.3984 93.737C78.3984 93.737 81.6273 93.2872 84.5418 91.5215" stroke="#198754" stroke-width="1.875" stroke-miterlimit="10"/>
<path d="M67.0642 39.9073L67.3361 38.5914L67.4211 39.0578L66.4609 36.7007H67.2172L67.9479 38.4998H67.4891L68.9676 36.6924H69.7493L67.8375 39.0495L68.0924 38.5747L67.8205 39.8907L67.0642 39.9073Z" fill="#368C72"/>
<path d="M70.9731 39.957C70.6417 39.957 70.3613 39.8987 70.1149 39.7821C69.877 39.6655 69.6901 39.4989 69.5626 39.2907C69.4352 39.0825 69.3672 38.841 69.3672 38.5661C69.3672 38.2912 69.4182 38.0414 69.5116 37.7998C69.6051 37.5666 69.7411 37.3584 69.928 37.1918C70.1064 37.0169 70.3188 36.8837 70.5653 36.7837C70.8117 36.6838 71.0921 36.6338 71.3895 36.6338C71.7209 36.6338 72.0013 36.6921 72.2477 36.8087C72.4856 36.9253 72.6725 37.0919 72.8 37.3001C72.9274 37.5083 72.9954 37.7499 72.9954 38.0247C72.9954 38.2996 72.9444 38.5494 72.851 38.791C72.7575 39.0242 72.613 39.2324 72.4346 39.399C72.2562 39.5739 72.0437 39.7072 71.7973 39.8071C71.5509 39.9071 71.2705 39.957 70.9731 39.957ZM71.0326 39.324C71.2195 39.324 71.381 39.2907 71.5339 39.2241C71.6784 39.1574 71.8058 39.0658 71.9078 38.9492C72.0098 38.8326 72.0862 38.6994 72.1457 38.5494C72.1967 38.3995 72.2307 38.2413 72.2307 38.0747C72.2307 37.9164 72.1967 37.7748 72.1287 37.6582C72.0607 37.5333 71.9588 37.4417 71.8228 37.3751C71.6869 37.3084 71.5254 37.2751 71.3385 37.2751C71.1516 37.2751 70.9901 37.3084 70.8457 37.3751C70.7012 37.4417 70.5738 37.5333 70.4718 37.6499C70.3698 37.7665 70.2849 37.8998 70.2339 38.0497C70.1829 38.1996 70.1489 38.3662 70.1489 38.5245C70.1489 38.6827 70.1829 38.8243 70.2509 38.9409C70.3188 39.0658 70.4208 39.1574 70.5568 39.2241C70.6842 39.299 70.8457 39.324 71.0326 39.324Z" fill="#368C72"/>
<path d="M74.7622 39.9573C74.4393 39.9573 74.1759 39.899 73.9719 39.7741C73.7595 39.6491 73.6151 39.4826 73.5216 39.266C73.4281 39.0495 73.4196 38.7913 73.4791 38.4914L73.8445 36.6924H74.6092L74.2439 38.4748C74.2184 38.6164 74.2099 38.7413 74.2184 38.8496C74.2354 38.9578 74.2608 39.0495 74.3118 39.1161C74.3628 39.1827 74.4308 39.241 74.5243 39.2743C74.6177 39.3077 74.7197 39.3243 74.8471 39.3243C75.0001 39.3243 75.1275 39.2993 75.2465 39.2327C75.357 39.1744 75.4504 39.0828 75.5269 38.9578C75.6034 38.8329 75.6629 38.6663 75.6968 38.4748L76.0622 36.6924H76.8015L76.4276 38.5164C76.3341 38.9912 76.1472 39.3493 75.8668 39.5908C75.5864 39.8407 75.2125 39.9573 74.7622 39.9573Z" fill="#368C72"/>
<path d="M76.8945 39.9078L77.5488 36.7012H78.8828C79.2907 36.7012 79.6051 36.7928 79.826 36.9677C80.0469 37.1426 80.1574 37.3841 80.1574 37.7006C80.1574 37.9672 80.0894 38.2004 79.9619 38.4003C79.8345 38.6002 79.6476 38.7501 79.4096 38.8584C79.1717 38.9666 78.8913 39.0166 78.5684 39.0166H77.5063L77.9057 38.6918L77.6593 39.9161L76.8945 39.9078ZM77.8887 38.7667L77.6253 38.4169H78.6024C78.8573 38.4169 79.0528 38.3586 79.1887 38.2503C79.3247 38.1337 79.3927 37.9755 79.3927 37.7589C79.3927 37.6007 79.3417 37.4841 79.2312 37.4091C79.1207 37.3342 78.9763 37.2925 78.7809 37.2925H77.8632L78.2625 36.9261L77.8887 38.7667ZM79.0018 39.9078L78.3305 38.7418H79.1207L79.792 39.9078H79.0018Z" fill="#368C72"/>
<path d="M5.15508 54.2987C7.18235 54.2987 8.82578 52.6878 8.82578 50.7006C8.82578 48.7135 7.18235 47.1025 5.15508 47.1025C3.12781 47.1025 1.48438 48.7135 1.48438 50.7006C1.48438 52.6878 3.12781 54.2987 5.15508 54.2987Z" fill="#FFC000"/>
<path d="M44.3717 16.7707C42.4938 17.2205 42.12 17.587 41.6526 19.436C41.1938 17.5953 40.8199 17.2288 38.9336 16.7707C40.8114 16.321 41.1853 15.9545 41.6526 14.1055C42.1115 15.9545 42.4853 16.321 44.3717 16.7707Z" fill="#FFC000"/>
<path d="M31.3153 118.465C31.3153 118.465 30.0492 115.916 32.1055 114.15C34.1532 112.376 34.5186 112.534 35.2833 111.094C36.0481 109.653 36.7278 108.054 38.1978 107.695C39.6678 107.337 40.9678 107.887 42.0979 107.795C43.5 107.679 43.8993 106.837 45.8111 106.504C47.6635 106.188 48.9635 107.479 49.7537 108.87C50.544 110.261 50.0681 110.302 52.3283 110.769C54.5885 111.235 55.2088 112.743 55.3873 114.142C55.5572 115.491 58.0468 114.892 56.8402 118.456L31.3153 118.465Z" fill="#DEAD2B"/>
<path d="M47.3479 107.486L44.4844 118.464" stroke="white" stroke-width="1.875" stroke-miterlimit="10"/>
<path d="M52.8305 112.21L45.7695 118.465" stroke="white" stroke-width="1.875" stroke-miterlimit="10"/>
<path d="M56.1368 116.231L47.0195 118.464" stroke="white" stroke-width="1.875" stroke-miterlimit="10"/>
<path d="M38.2578 108.778L43.5345 118.465" stroke="white" stroke-width="1.875" stroke-miterlimit="10"/>
<path d="M33.4297 114.716L42.2666 118.464" stroke="white" stroke-width="1.875" stroke-miterlimit="10"/>
<path d="M84.7631 39.8202L84.663 40.3784H82.6286L82.7287 39.8202H84.7631ZM83.5528 36.2947L82.8289 40.3784H82.125L82.8489 36.2947H83.5528Z" fill="black"/>
<path d="M86.9435 39.7697L87.1781 38.3141C87.1896 38.2169 87.1829 38.129 87.1581 38.0504C87.1333 37.9719 87.0875 37.9102 87.0207 37.8653C86.9559 37.8186 86.87 37.7943 86.7632 37.7924C86.6678 37.7905 86.5782 37.8064 86.4942 37.8401C86.4103 37.8719 86.3388 37.9196 86.2796 37.9831C86.2224 38.0467 86.1843 38.1243 86.1652 38.2159L85.4928 38.2187C85.5042 38.0598 85.5519 37.9214 85.6358 37.8036C85.7217 37.684 85.8295 37.5858 85.9592 37.5091C86.0908 37.4306 86.232 37.3736 86.3827 37.338C86.5353 37.3007 86.684 37.2829 86.829 37.2848C87.0389 37.2885 87.2248 37.3324 87.387 37.4166C87.5491 37.5007 87.6722 37.6195 87.7561 37.7728C87.8419 37.9261 87.8744 38.1112 87.8534 38.3281L87.6273 39.68C87.6102 39.7866 87.5978 39.896 87.5901 40.0081C87.5844 40.1185 87.5997 40.225 87.6359 40.3279L87.6302 40.3784L86.9635 40.3812C86.9349 40.2821 86.9206 40.1811 86.9206 40.0783C86.9206 39.9736 86.9282 39.8707 86.9435 39.7697ZM87.2554 38.5329L87.1867 38.9508L86.7403 38.948C86.6488 38.948 86.5543 38.9564 86.4571 38.9732C86.3617 38.99 86.272 39.019 86.1881 39.0601C86.1042 39.1013 86.0336 39.1574 85.9763 39.2284C85.9191 39.2976 85.8838 39.3846 85.8705 39.4893C85.8609 39.5734 85.8705 39.6463 85.8991 39.708C85.9296 39.7679 85.9754 39.8156 86.0364 39.8511C86.0975 39.8866 86.17 39.9053 86.2539 39.9072C86.3664 39.909 86.4771 39.8875 86.5858 39.8427C86.6964 39.7978 86.7918 39.7342 86.8719 39.6519C86.954 39.5678 87.0102 39.4715 87.0408 39.3631L87.221 39.666C87.1791 39.78 87.1199 39.8847 87.0436 39.9801C86.9692 40.0755 86.8824 40.1577 86.7832 40.2269C86.684 40.2961 86.5753 40.3494 86.4571 40.3868C86.3407 40.4242 86.2205 40.4419 86.0965 40.4401C85.9248 40.4363 85.7684 40.398 85.6273 40.3251C85.4861 40.2503 85.3745 40.1465 85.2925 40.0138C85.2105 39.881 85.1742 39.7277 85.1838 39.5538C85.1933 39.3574 85.2438 39.1938 85.3354 39.063C85.4289 38.9302 85.5481 38.8255 85.6931 38.7488C85.84 38.6703 86.0002 38.6142 86.1738 38.5805C86.3474 38.5469 86.519 38.5301 86.6888 38.5301L87.2554 38.5329Z" fill="black"/>
<path d="M89.284 38.0308L88.8692 40.3784H88.1939L88.7318 37.3437H89.3642L89.284 38.0308ZM89.0466 38.7488L88.8405 38.7516C88.8634 38.5703 88.9083 38.3917 88.975 38.2159C89.0437 38.0383 89.1343 37.8794 89.2468 37.7391C89.3594 37.597 89.4958 37.4848 89.656 37.4026C89.8182 37.3203 90.0051 37.282 90.2168 37.2876C90.3847 37.2913 90.524 37.324 90.6346 37.3857C90.7471 37.4474 90.8339 37.5306 90.895 37.6353C90.9579 37.7401 90.9989 37.8597 91.018 37.9944C91.0371 38.129 91.038 38.2702 91.0209 38.4179L90.689 40.3784H90.0108L90.3485 38.4095C90.3599 38.301 90.3561 38.2038 90.337 38.1178C90.3179 38.0299 90.276 37.9607 90.2111 37.9102C90.1463 37.8579 90.0528 37.8307 89.9307 37.8289C89.7972 37.8251 89.6799 37.8494 89.5788 37.9018C89.4777 37.9542 89.3909 38.0261 89.3184 38.1178C89.2459 38.2075 89.1868 38.3075 89.141 38.4179C89.0971 38.5282 89.0656 38.6385 89.0466 38.7488Z" fill="black"/>
<path d="M93.3157 39.7108L93.9595 36.0703H94.6376L93.8736 40.3784H93.267L93.3157 39.7108ZM91.5073 38.9171L91.513 38.8582C91.5378 38.6712 91.5826 38.4842 91.6475 38.2973C91.7143 38.1103 91.8039 37.9392 91.9165 37.784C92.0309 37.6288 92.1702 37.5054 92.3342 37.4138C92.5002 37.3222 92.6947 37.2791 92.9179 37.2848C93.1125 37.2904 93.2746 37.3399 93.4044 37.4334C93.5341 37.5269 93.6352 37.6475 93.7077 37.7952C93.7821 37.9429 93.8326 38.1028 93.8593 38.2748C93.886 38.445 93.8946 38.6114 93.8851 38.7741L93.8622 38.9648C93.8316 39.1368 93.7801 39.3107 93.7077 39.4865C93.6352 39.6622 93.5407 39.823 93.4244 39.9689C93.3099 40.1147 93.1726 40.2307 93.0124 40.3167C92.854 40.4027 92.6728 40.4429 92.4687 40.4373C92.2646 40.4298 92.0958 40.3793 91.9622 40.2858C91.8287 40.1905 91.7257 40.068 91.6532 39.9184C91.5807 39.7669 91.534 39.6043 91.513 39.4304C91.492 39.2546 91.4901 39.0835 91.5073 38.9171ZM92.194 38.8526L92.1883 38.9115C92.1768 39.0087 92.1721 39.1125 92.174 39.2228C92.1759 39.3331 92.1912 39.4388 92.2198 39.5398C92.2503 39.6389 92.3008 39.7211 92.3714 39.7866C92.4439 39.852 92.545 39.8875 92.6747 39.8932C92.8254 39.8988 92.9589 39.8651 93.0753 39.7922C93.1936 39.7193 93.2918 39.6239 93.37 39.5061C93.4482 39.3883 93.5035 39.263 93.536 39.1303L93.6161 38.617C93.6218 38.5235 93.6151 38.431 93.5961 38.3393C93.5789 38.2477 93.5474 38.1645 93.5016 38.0897C93.4559 38.0149 93.3948 37.9542 93.3185 37.9074C93.2441 37.8588 93.1535 37.8335 93.0467 37.8317C92.9055 37.8261 92.7834 37.8541 92.6804 37.9158C92.5793 37.9775 92.4954 38.0598 92.4286 38.1626C92.3638 38.2655 92.3123 38.3777 92.2741 38.4992C92.236 38.6207 92.2093 38.7385 92.194 38.8526Z" fill="black"/>
<path d="M46.89 31.3776C45.2785 26.7667 41.7274 22.6818 34.177 22.9137C26.4819 23.1497 22.7679 27.3126 21.0035 31.7775C18.9336 37.0381 19.5488 42.9586 22.4867 47.8054L33.5515 66.2627L43.6058 48.9211C46.0547 43.9764 48.9864 37.3661 46.89 31.3776ZM33.6962 42.9087C32.4635 42.9087 31.2584 42.5499 30.2335 41.8777C29.2086 41.2055 28.4098 40.2502 27.9381 39.1324C27.4665 38.0147 27.3432 36.7847 27.5838 35.5982C27.8245 34.4117 28.4182 33.3218 29.29 32.4665C30.1618 31.6112 31.2725 31.0288 32.4816 30.793C33.6906 30.5573 34.9438 30.6787 36.0826 31.1419C37.2213 31.6052 38.1945 32.3894 38.8791 33.3955C39.5636 34.4016 39.9288 35.5844 39.9284 36.7942C39.9284 37.5973 39.7672 38.3926 39.454 39.1346C39.1407 39.8765 38.6817 40.5507 38.1029 41.1185C37.5242 41.6863 36.8371 42.1366 36.081 42.4438C35.3249 42.751 34.5145 42.9089 33.6962 42.9087Z" fill="#368C72"/>
<path opacity="0.2" d="M26.3835 31.7783C28.4351 27.9573 31.1407 23.9803 37.3851 23.0985C36.3294 22.9374 35.2603 22.8758 34.1926 22.9146C26.4976 23.1505 22.7835 27.3134 21.0191 31.7783C18.9492 37.039 19.5645 42.9595 22.5023 47.8063L33.5671 66.2636C33.5671 66.2636 20.3998 42.9095 26.3835 31.7783Z" fill="white"/>
<path opacity="0.13" d="M32.837 36.7952C32.8369 35.6402 33.1698 34.5088 33.797 33.5316C34.4243 32.5544 35.3204 31.7712 36.3819 31.2726C35.432 30.8283 34.3828 30.6274 33.3323 30.6884C32.2819 30.7495 31.2643 31.0707 30.3744 31.6219C29.4845 32.1732 28.7514 32.9366 28.2433 33.8411C27.7352 34.7455 27.4688 35.7614 27.4688 36.7942C27.4688 37.827 27.7352 38.8429 28.2433 39.7473C28.7514 40.6517 29.4845 41.4152 30.3744 41.9664C31.2643 42.5177 32.2819 42.8388 33.3323 42.8999C34.3828 42.961 35.432 42.7601 36.3819 42.3158C35.3205 41.8177 34.4243 41.0349 33.797 40.058C33.1696 39.0811 32.8368 37.9499 32.837 36.7952Z" fill="white"/>
</svg>
