<svg width="164" height="133" viewBox="0 0 164 133" fill="none" xmlns="http://www.w3.org/2000/svg">
<g clip-path="url(#clip0_530_5536)">
<path opacity="0.1" d="M83.9156 132.579C125.234 132.579 158.73 127.288 158.73 120.762C158.73 114.236 125.234 108.945 83.9156 108.945C42.5969 108.945 9.10156 114.236 9.10156 120.762C9.10156 127.288 42.5969 132.579 83.9156 132.579Z" fill="#348739"/>
<path d="M26.9375 0.464844H113.776V116.113H26.9375V0.464844Z" fill="#368C72"/>
<path d="M128.245 120.762H41.4062V20.71L54.2447 5.11328H128.245V120.762Z" fill="#F7F7F7"/>
<path d="M54.2447 5.11328V20.71H41.4062L54.2447 5.11328Z" fill="#F2F2F2"/>
<path d="M56.1133 31.707H103.334V33.5052H56.1133V31.707ZM105.764 31.707H113.53V33.5052H105.764V31.707ZM56.1133 51.9278H71.9328V53.726H56.1133V51.9278ZM73.7866 51.9278H113.542V53.726H73.7866V51.9278ZM56.1133 41.8235H71.9328V43.6217H56.1133V41.8235ZM75.4399 41.8235H92.4118V43.6217H75.4399V41.8235ZM94.0902 41.8235H113.53V43.6217H94.0902V41.8235Z" fill="#8010B0"/>
<path d="M113.527 73.9463H66.3067V72.1481H113.527V73.9463Z" fill="#8010B0"/>
<path d="M63.8906 73.9463H56.1249V72.1481H63.8906V73.9463Z" fill="#FFBE55"/>
<path d="M113.527 84.0488H66.3067V82.2506H113.527V84.0488Z" fill="#8010B0"/>
<path d="M63.8906 84.0488H56.1249V82.2506H63.8906V84.0488Z" fill="#FFBE55"/>
<path d="M113.531 63.8291H97.7117V62.0309H113.531V63.8291Z" fill="#8010B0"/>
<path d="M94.2109 63.8291H77.2391V62.0309H94.2109V63.8291Z" fill="#8010B0"/>
<path d="M75.5625 63.8291H56.1231V62.0309H75.5625V63.8291Z" fill="#8010B0"/>
<path d="M56.7732 103.147L56.1094 101.85C56.1344 101.838 57.8755 100.994 59.8545 99.844C59.5914 99.526 59.366 99.1712 59.1656 98.792C57.4872 95.5993 58.8524 94.009 59.5163 93.483C61.1446 92.1741 64.2008 92.3331 66.1798 93.85C66.7058 94.2537 66.9563 94.8164 66.8937 95.4158C66.806 96.2109 66.2299 97.5443 62.3345 100.04C63.3616 100.627 64.5139 100.81 65.4909 100.847C68.522 100.945 71.2901 99.6483 71.7285 98.9388L73.0437 96.7858L73.1063 99.2936C73.1188 99.8196 73.3318 100.529 73.5697 100.602C73.6073 100.615 74.3714 100.823 76.5382 98.1314L77.7031 99.0244C75.7617 101.434 74.2962 102.376 73.0938 101.985C72.455 101.777 72.0917 101.239 71.8788 100.713C70.4133 101.642 67.8957 102.388 65.4282 102.315C63.6496 102.254 62.1341 101.765 60.9567 100.896C58.8023 102.156 56.8609 103.098 56.7732 103.147ZM62.347 94.0335C61.608 94.0335 60.9191 94.217 60.4557 94.5962C59.3409 95.4892 60.0048 97.1895 60.4933 98.1192C60.6811 98.474 60.8941 98.792 61.1321 99.0611C64.9773 96.6635 65.3781 95.5503 65.4157 95.2567C65.4282 95.1956 65.4283 95.1099 65.2654 94.9754C64.4513 94.3637 63.349 94.0335 62.347 94.0335Z" fill="#198754"/>
<path d="M74.2282 60.6977L60.3438 75.1377L74.6502 88.2779L88.5347 73.8379L74.2282 60.6977Z" fill="#B54F26"/>
<path d="M55.2202 75.7501C56.9989 73.9004 59.9758 73.8105 61.8684 75.5489L74.1436 86.8232C76.0376 88.563 76.1309 91.4724 74.3522 93.3222C72.5735 95.1719 69.598 95.2618 67.7027 93.522L55.4275 82.2478C53.5362 80.5093 53.4415 77.5999 55.2202 75.7501Z" fill="#472B12"/>
<path d="M74.54 55.6544C76.3187 53.8047 79.2956 53.7148 81.1882 55.4532L93.4634 66.7275C95.3587 68.4673 95.4507 71.3767 93.672 73.2265C91.8946 75.0749 88.9178 75.1661 87.0225 73.4263L74.7473 62.1521C72.856 60.4137 72.7627 57.5042 74.54 55.6544Z" fill="#472B12"/>
<path d="M88.2801 87.1925L86.375 89.1738L133.63 132.576L135.535 130.595L88.2801 87.1925Z" fill="#623613"/>
<path d="M90.1845 85.213L88.2812 87.1924L135.536 130.595L137.439 128.616L90.1845 85.213Z" fill="#472B12"/>
<path d="M133.895 132.311L135.543 130.597L140.3 134.966L138.652 136.68C137.418 137.964 135.351 138.016 134.039 136.81C133.377 136.202 133.036 135.406 133.01 134.59C132.982 133.774 133.273 132.959 133.895 132.311Z" fill="#623613"/>
<path d="M135.543 130.597L137.18 128.895C138.413 127.613 140.481 127.539 141.793 128.745C142.453 129.352 142.795 130.149 142.811 130.975C142.839 131.792 142.548 132.627 141.936 133.264L140.299 134.966L135.543 130.597Z" fill="#472B12"/>
<path d="M78.7188 84.0689L81.6091 81.0615L88.2875 87.1956L86.3825 89.1769L78.7188 84.0689Z" fill="#623613"/>
<path d="M81.6094 81.0607L84.5011 78.0547L90.1913 85.2149L88.2877 87.1948L81.6094 81.0607Z" fill="#472B12"/>
<path d="M80.9002 67.7925L68.0195 81.1904L70.5251 83.4915L83.4058 70.0935L80.9002 67.7925Z" fill="#F5841F"/>
<path d="M96.5608 117.942H66.3984V127.883H96.5608V117.942Z" fill="#372110"/>
<path d="M109.353 127.884H53.6055V137.679H109.353V127.884Z" fill="#623613"/>
</g>
<defs>
<clipPath id="clip0_530_5536">
<rect width="162.615" height="132.114" fill="white" transform="translate(0.925781 0.464844)"/>
</clipPath>
</defs>
</svg>
