<svg width="110" height="92" viewBox="0 0 110 92" fill="none" xmlns="http://www.w3.org/2000/svg">
<path d="M73.7772 91.8031H2.38628C1.51189 91.8031 0.804688 91.1085 0.804688 90.2533V2.37762C0.804688 1.52244 1.51356 0.826172 2.38628 0.826172H51.2403L75.3605 24.4616V90.2533C75.3588 91.1085 74.6499 91.8031 73.7772 91.8031Z" fill="url(#paint0_linear_900_1612)"/>
<path d="M53.3783 24.4607H75.3585L51.2383 0.825195V22.3637C51.24 23.5236 52.1963 24.4607 53.3783 24.4607Z" fill="#198754"/>
<path d="M59.1219 32.1172H17.0391V34.555H59.1219V32.1172Z" fill="#198754"/>
<path d="M49.3331 40.6182H17.0391V43.0559H49.3331V40.6182Z" fill="#198754"/>
<path d="M49.3331 59.8975H17.0391V62.3352H49.3331V59.8975Z" fill="#198754"/>
<path d="M53.9057 70.4258H17.0391V72.8619H53.9057V70.4258Z" fill="#198754"/>
<path d="M93.6488 8.68338L64.8477 52.417L76.3944 59.7186L105.195 15.985L93.6488 8.68338Z" fill="#4E9F46"/>
<path d="M106.357 1.96558L106.242 1.89183C103.085 -0.103596 98.8736 0.784371 96.8356 3.87744L93.6758 8.67433L105.223 15.9778L108.383 11.1809C110.421 8.08784 109.514 3.96101 106.357 1.96558Z" fill="#EF4F32"/>
<path d="M93.6527 8.68616L92.3438 10.6738L103.89 17.9754L105.199 15.9878L93.6527 8.68616Z" fill="#25783C"/>
<path d="M84.3759 35.2804L84.3224 35.2476C82.8712 34.3302 82.4549 32.4347 83.3895 31.0127L98.53 8.02271C99.4663 6.60068 101.401 6.19274 102.852 7.11017L102.905 7.14293C104.357 8.06037 104.773 9.95587 103.837 11.3779L88.696 34.3679C87.7615 35.7899 85.8254 36.1978 84.3759 35.2804Z" fill="#FFC633"/>
<path d="M64.3191 69.8185L60.4688 67.3824L64.8775 52.4102L76.4252 59.712L64.3191 69.8185Z" fill="#999999"/>
<path d="M77.5645 57.9812L66.0152 50.6777L64.875 52.411L76.4227 59.7129L77.5645 57.9812Z" fill="#8B8A8A"/>
<path d="M59.3957 73.0595L59.3773 73.048C58.8372 72.7072 58.6166 72.0405 58.8506 71.454L60.469 67.3828L64.214 69.7518L61.0959 72.8727C60.6445 73.3232 59.934 73.4002 59.3957 73.0595Z" fill="#5C5B5B"/>
<defs>
<linearGradient id="paint0_linear_900_1612" x1="38.0826" y1="0.826172" x2="38.0826" y2="91.8031" gradientUnits="userSpaceOnUse">
<stop stop-color="#ACFF9E"/>
<stop offset="0.489583" stop-color="#CEFFD3"/>
<stop offset="1" stop-color="#74FF82"/>
</linearGradient>
</defs>
</svg>
