<svg width="117" height="115" viewBox="0 0 117 115" fill="none" xmlns="http://www.w3.org/2000/svg">
<path opacity="0.3" d="M107.593 57.4946C107.593 63.6062 105.116 69.4674 100.708 73.7889C96.2989 78.1104 90.3194 80.5382 84.0845 80.5382C79.9267 80.5501 75.842 79.4664 72.2578 77.4008C74.6536 75.1108 76.889 72.665 78.9487 70.08C81.7053 66.6969 84.0368 63.0011 85.8928 59.0722C88.2369 54.1343 89.4704 48.7601 89.5096 43.3139C89.5152 40.4381 89.0887 37.5772 88.2437 34.8232C93.6687 35.7791 98.5786 38.5732 102.115 42.7172C105.652 46.8612 107.591 52.0917 107.593 57.4946Z" fill="url(#paint0_linear_530_5412)"/>
<path d="M69.618 57.4966H47.9177C47.4381 57.4966 46.9782 57.3099 46.639 56.9774C46.2999 56.645 46.1094 56.1941 46.1094 55.724V37.9982C46.1094 37.5281 46.2999 37.0772 46.639 36.7448C46.9782 36.4123 47.4381 36.2256 47.9177 36.2256H69.618C70.0977 36.2256 70.5576 36.4123 70.8968 36.7448C71.2359 37.0772 71.4264 37.5281 71.4264 37.9982V55.724C71.4264 56.1941 71.2359 56.645 70.8968 56.9774C70.5576 57.3099 70.0977 57.4966 69.618 57.4966ZM49.7261 53.9514H67.8097V39.7708H49.7261V53.9514Z" fill="#E9DF00"/>
<path d="M75.0407 39.7693H42.4903C42.1137 39.7682 41.747 39.6519 41.4411 39.4366C41.1353 39.2213 40.9056 38.9179 40.7842 38.5685C40.6627 38.2192 40.6555 37.8414 40.7636 37.4879C40.8717 37.1343 41.0897 36.8227 41.3872 36.5964L57.6624 24.1883C57.9786 23.9497 58.3664 23.8203 58.7655 23.8203C59.1645 23.8203 59.5524 23.9497 59.8686 24.1883L76.1438 36.5964C76.4413 36.8227 76.6593 37.1343 76.7673 37.4879C76.8754 37.8414 76.8683 38.2192 76.7468 38.5685C76.6254 38.9179 76.3957 39.2213 76.0898 39.4366C75.784 39.6519 75.4172 39.7682 75.0407 39.7693ZM47.7526 36.2242H69.7784L58.7655 27.8398L47.7526 36.2242ZM62.3822 57.4952H55.1488C54.6692 57.4952 54.2092 57.3084 53.8701 56.976C53.5309 56.6436 53.3404 56.1927 53.3404 55.7226V46.8597C53.3404 46.3896 53.5309 45.9387 53.8701 45.6063C54.2092 45.2738 54.6692 45.0871 55.1488 45.0871H62.3822C62.8618 45.0871 63.3218 45.2738 63.6609 45.6063C64 45.9387 64.1906 46.3896 64.1906 46.8597V55.7226C64.1906 56.1927 64 56.6436 63.6609 56.976C63.3218 57.3084 62.8618 57.4952 62.3822 57.4952ZM56.9571 53.95H60.5738V48.6323H56.9571V53.95Z" fill="#E9DF00"/>
<path d="M73.2336 57.4954H44.2998C43.8202 57.4954 43.3603 57.3086 43.0211 56.9762C42.682 56.6438 42.4915 56.1929 42.4915 55.7228C42.4915 55.2527 42.682 54.8018 43.0211 54.4694C43.3603 54.1369 43.8202 53.9502 44.2998 53.9502H73.2336C73.7132 53.9502 74.1732 54.1369 74.5123 54.4694C74.8514 54.8018 75.042 55.2527 75.042 55.7228C75.042 56.1929 74.8514 56.6438 74.5123 56.9762C74.1732 57.3086 73.7132 57.4954 73.2336 57.4954ZM58.7667 101.81C58.5108 101.809 58.2581 101.754 58.0253 101.65L38.1333 92.7876C37.8161 92.6478 37.5467 92.4212 37.3574 92.1351C37.1682 91.849 37.0671 91.5155 37.0664 91.1745L38.2057 68.9817C38.2257 68.6211 38.3577 68.275 38.5839 67.9899C38.8102 67.7048 39.1198 67.4942 39.4715 67.3864C39.8236 67.2777 40.2011 67.2771 40.5535 67.3849C40.9058 67.4926 41.2161 67.7034 41.4426 67.9891C46.6285 74.3695 52.7966 79.9192 59.7251 84.4387C59.9732 84.5901 60.18 84.7983 60.3281 85.0452C60.4761 85.2922 60.5608 85.5706 60.5751 85.8567V100.037C60.5746 100.334 60.4982 100.626 60.3528 100.886C60.2075 101.146 59.9979 101.366 59.7432 101.526C59.4522 101.711 59.1132 101.809 58.7667 101.81ZM40.6831 90.0578L56.9584 97.2899V86.8139C51.307 83.0397 46.1454 78.6051 41.5873 73.6082L40.6831 90.0578Z" fill="#198754"/>
<path d="M58.7663 101.811C58.4198 101.81 58.0808 101.711 57.7897 101.527C57.5351 101.367 57.3255 101.147 57.1801 100.887C57.0348 100.626 56.9584 100.335 56.9579 100.038V85.8575C56.9573 85.5563 57.035 85.2598 57.1837 84.9962C57.3324 84.7326 57.5472 84.5105 57.8078 84.3508C64.7363 79.8313 70.9044 74.2816 76.0903 67.9012C76.3169 67.6156 76.6272 67.4047 76.9795 67.297C77.3319 67.1893 77.7094 67.1898 78.0614 67.2985C78.4131 67.4063 78.7228 67.6169 78.9491 67.902C79.1753 68.1871 79.3073 68.5332 79.3273 68.8938L80.4666 91.1753C80.499 91.5428 80.4137 91.9111 80.2224 92.2289C80.0312 92.5466 79.7436 92.798 79.3996 92.9478L59.5077 101.811C59.2632 101.861 59.0107 101.861 58.7663 101.811ZM60.5746 86.8147V97.2907L76.8499 90.0585L75.9999 73.6089C71.425 78.6092 66.245 83.0439 60.5746 86.8147ZM15.3656 100.038C14.9346 100.038 14.5178 99.8873 14.1902 99.6128C13.953 99.4192 13.7704 99.1693 13.6596 98.887C13.5488 98.6046 13.5136 98.2992 13.5573 97.9997L18.9824 62.548C19.0315 62.2325 19.1667 61.9358 19.3736 61.6893C19.5804 61.4428 19.8514 61.2557 20.1578 61.1477L32.6897 56.6807C33.118 56.5298 33.5885 56.5427 34.0075 56.7168C34.4265 56.8909 34.7631 57.2135 34.9502 57.6202C36.6796 61.2838 38.8533 64.7298 41.4241 67.8835C41.693 68.2213 41.8279 68.6432 41.8039 69.0711L40.6827 91.2639C40.665 91.6298 40.532 91.9815 40.3021 92.2703C40.0722 92.5592 39.7566 92.7711 39.3987 92.8769L15.8901 99.9673C15.7202 100.018 15.5432 100.042 15.3656 100.038ZM22.4182 64.1256L17.5718 95.7485L37.0659 89.8458L38.0967 69.5497C35.881 66.7445 33.949 63.7347 32.328 60.5627L22.4182 64.1256Z" fill="#0F6800"/>
<path d="M102.166 100.037C101.992 100.064 101.815 100.064 101.642 100.037L78.133 92.9463C77.7751 92.8404 77.4595 92.6285 77.2296 92.3396C76.9997 92.0508 76.8667 91.6992 76.849 91.3332L75.7098 69.1404C75.6857 68.7126 75.8207 68.2907 76.0895 67.9528C78.6604 64.7991 80.834 61.3532 82.5634 57.6895C82.7505 57.2829 83.0871 56.9603 83.5061 56.7861C83.9251 56.612 84.3956 56.5991 84.8239 56.7501L97.3558 61.217C97.6622 61.325 97.9332 61.5122 98.1401 61.7587C98.3469 62.0051 98.4821 62.3018 98.5313 62.6173L103.956 98.069C104.002 98.367 103.97 98.6714 103.862 98.9537C103.755 99.2359 103.575 99.4866 103.341 99.6821C103.004 99.9312 102.588 100.057 102.166 100.037ZM80.4658 89.8442L100.032 95.747L95.1135 64.124L85.1313 60.5789C83.5104 63.7509 81.5784 66.7607 79.3627 69.5659L80.4658 89.8442Z" fill="#0F6800"/>
<path d="M88.2418 34.8262C86.145 27.887 81.5705 21.9193 75.3546 18.014C69.1386 14.1087 61.6964 12.5267 54.3885 13.5571C47.0805 14.5875 40.3949 18.1615 35.5539 23.6258C30.7129 29.0902 28.0399 36.0797 28.0234 43.3168C28.0626 48.763 29.2961 54.1372 31.6402 59.0751C33.4812 62.9987 35.8008 66.689 38.5481 70.0652C43.9828 76.7915 50.4709 82.6307 57.771 87.3656C58.0584 87.5417 58.3905 87.635 58.7294 87.635C59.0683 87.635 59.4004 87.5417 59.6878 87.3656C64.1948 84.4646 68.3932 81.1272 72.2197 77.4037C74.6155 75.1137 76.8509 72.6679 78.9107 70.0829C81.6799 66.7017 84.0235 63.0058 85.8909 59.0751C88.235 54.1372 89.4685 48.763 89.5077 43.3168C89.5133 40.441 89.0868 37.5801 88.2418 34.8262ZM82.5636 57.6216C80.8303 61.2888 78.657 64.7401 76.0896 67.9026C73.9743 70.5344 71.6783 73.0218 69.2179 75.3475C65.9683 78.412 62.473 81.2158 58.7655 83.7318C52.2305 79.3093 46.3936 73.97 41.4415 67.8849C38.8706 64.7312 36.697 61.2852 34.9675 57.6216C32.828 53.1413 31.6933 48.2634 31.6402 43.3168C31.6427 37.0466 33.9059 30.9789 38.03 26.1857C42.154 21.3925 47.8736 18.1821 54.1783 17.1217C60.483 16.0613 66.9671 17.2191 72.4854 20.3906C78.0036 23.5621 82.2009 28.5431 84.3358 34.4539C85.3725 37.298 85.8987 40.2967 85.8909 43.3168C85.8378 48.2634 84.7031 53.1413 82.5636 57.6216Z" fill="#0F6800"/>
<defs>
<linearGradient id="paint0_linear_530_5412" x1="89.9255" y1="34.8232" x2="89.9255" y2="80.5383" gradientUnits="userSpaceOnUse">
<stop stop-color="#ACFF9E"/>
<stop offset="0.489583" stop-color="#CEFFD3"/>
<stop offset="1" stop-color="#74FF82"/>
</linearGradient>
</defs>
</svg>
