<svg width="126" height="129" viewBox="0 0 126 129" fill="none" xmlns="http://www.w3.org/2000/svg">
<g clip-path="url(#clip0_900_325)">
<path opacity="0.1" d="M64.5558 128.024C96.2826 128.024 122.002 122.918 122.002 116.619C122.002 110.32 96.2826 105.214 64.5558 105.214C32.829 105.214 7.10938 110.32 7.10938 116.619C7.10938 122.918 32.829 128.024 64.5558 128.024Z" fill="#348739"/>
<path d="M20.8047 0.512695H87.4841V112.133H20.8047V0.512695Z" fill="#88CC53"/>
<path d="M98.5934 116.621H31.9141V20.0536L41.7722 5H98.5934V116.621Z" fill="#F7F7F7"/>
<path d="M41.7722 5V20.0536H31.9141L41.7722 5Z" fill="#F2F2F2"/>
<path d="M43.207 30.666H79.4657V32.4016H43.207V30.666ZM81.3315 30.666H87.2945V32.4016H81.3315V30.666ZM43.207 50.1825H55.3542V51.9181H43.207V50.1825ZM56.7776 50.1825H87.3041V51.9181H56.7776V50.1825ZM43.207 40.4302H55.3542V42.1658H43.207V40.4302ZM58.0471 40.4302H71.0791V42.1658H58.0471V40.4302ZM72.3678 40.4302H87.2945V42.1658H72.3678V40.4302Z" fill="#88CC53"/>
<path d="M87.2969 71.4346H51.0382V69.699H87.2969V71.4346Z" fill="#88CC53"/>
<path d="M49.1797 71.4346H43.2167V69.699H49.1797V71.4346Z" fill="#FFBE55"/>
<path d="M87.2969 81.1855H51.0382V79.45H87.2969V81.1855Z" fill="#88CC53"/>
<path d="M49.1797 81.1855H43.2167V79.45H49.1797V81.1855Z" fill="#FFBE55"/>
<path d="M87.2969 61.6709H75.1497V59.9353H87.2969V61.6709Z" fill="#88CC53"/>
<path d="M72.4609 61.6709H59.429V59.9353H72.4609V61.6709Z" fill="#88CC53"/>
<path d="M58.1445 61.6709H43.2179V59.9353H58.1445V61.6709Z" fill="#88CC53"/>
<path d="M43.7168 99.6183L43.207 98.3668C43.2263 98.355 44.5631 97.5403 46.0827 96.4305C45.8807 96.1235 45.7076 95.7811 45.5537 95.4151C44.265 92.3336 45.3133 90.7987 45.823 90.291C47.0733 89.0277 49.4201 89.1812 50.9396 90.6452C51.3436 91.0349 51.5359 91.578 51.4879 92.1565C51.4205 92.9239 50.9781 94.2109 47.987 96.6194C48.7757 97.1861 49.6605 97.3632 50.4107 97.3987C52.7382 97.4931 54.8637 96.2416 55.2003 95.5568L56.2101 93.4788L56.2582 95.8992C56.2678 96.4069 56.4313 97.0917 56.6141 97.1625C56.6429 97.1743 57.2296 97.3751 58.8935 94.7776L59.7879 95.6395C58.2972 97.9654 57.1719 98.8745 56.2486 98.4967C55.7581 98.296 55.4792 97.7765 55.3157 97.2688C54.1904 98.1661 52.2573 98.8863 50.3626 98.8155C48.9969 98.7564 47.8331 98.2842 46.9291 97.4459C45.2748 98.662 43.7841 99.5711 43.7168 99.6183ZM47.9966 90.8223C47.4292 90.8223 46.9002 90.9994 46.5444 91.3654C45.6884 92.2273 46.1981 93.8685 46.5732 94.7658C46.7175 95.1082 46.881 95.4151 47.0637 95.6749C50.0164 93.3608 50.3241 92.2864 50.353 92.003C50.3626 91.944 50.3626 91.8613 50.2376 91.7314C49.6124 91.1411 48.766 90.8223 47.9966 90.8223Z" fill="#88CC53"/>
<path d="M119.245 42.4629L121.13 45.7806L80.5625 82.9953L76.7539 76.2773L119.245 42.4629Z" fill="#1A5B1E"/>
<path d="M80.6675 82.8997L76.5703 86.4063C75.4258 87.3862 73.8485 87.0438 73.0502 85.6388L72.127 84.0095C71.3287 82.6045 71.6076 80.6682 72.7521 79.6882L76.8492 76.1816L80.6675 82.8997Z" fill="#021C03"/>
<path d="M65.9541 85.0956L60.8086 94.5527L64.7999 91.1406C65.0019 90.6211 65.3866 89.7946 66.0502 89.2279C67.0793 88.3424 68.118 87.9882 68.3681 88.4251C68.6182 88.8619 67.9834 89.9363 66.9543 90.8218C66.2907 91.3885 65.5309 91.5538 65.0596 91.6011L61.0683 95.0132L70.0704 92.3685C70.0704 92.3685 74.5523 86.4415 73.2923 84.2101C72.042 81.9786 65.9541 85.0956 65.9541 85.0956Z" fill="#FFBE55"/>
</g>
<defs>
<clipPath id="clip0_900_325">
<rect width="124.865" height="127.512" fill="white" transform="translate(0.832031 0.512695)"/>
</clipPath>
</defs>
</svg>
