<svg width="149" height="151" viewBox="0 0 149 151" fill="none" xmlns="http://www.w3.org/2000/svg">
<g clip-path="url(#clip0_900_1638)">
<mask id="mask0_900_1638" style="mask-type:luminance" maskUnits="userSpaceOnUse" x="0" y="0" width="149" height="151">
<path d="M148.03 0H0.960938V150.238H148.03V0Z" fill="white"/>
</mask>
<g mask="url(#mask0_900_1638)">
<path d="M88.8867 18.335H94.4141V22.0993H88.8867V18.335Z" fill="#F1F1F1"/>
<path d="M64.1992 -3.12207H96.2578V20.2167H64.1992V-3.12207Z" fill="#0F6800"/>
<path d="M14.4492 56.7311C14.4492 55.6915 15.2741 54.8486 16.2917 54.8486H58.6681C59.6858 54.8486 60.5109 55.6915 60.5109 56.7311V132.394C60.5109 133.433 59.6858 134.276 58.6681 134.276H16.2917C15.2741 134.276 14.4492 133.433 14.4492 132.394V56.7311Z" fill="#F1F1F1"/>
<path fill-rule="evenodd" clipRule="evenodd" d="M0.816406 147.262C0.816406 147.055 0.981386 146.886 1.1849 146.886H147.661C147.864 146.886 148.029 147.055 148.029 147.262C148.029 147.47 147.864 147.638 147.661 147.638H1.1849C0.981386 147.638 0.816406 147.47 0.816406 147.262Z" fill="#3E3D3D"/>
<path d="M42.457 40.1673C42.457 36.0093 45.7566 32.6387 49.8269 32.6387H91.8351C95.9054 32.6387 99.2047 36.0093 99.2047 40.1673V115.453C99.2047 119.611 95.9054 122.982 91.8351 122.982H49.8269C45.7566 122.982 42.457 119.611 42.457 115.453V40.1673Z" fill="#F1F1F1"/>
<path fill-rule="evenodd" clipRule="evenodd" d="M42.0859 40.1677C42.0859 35.8019 45.5505 32.2627 49.8243 32.2627H91.8325C96.1063 32.2627 99.5707 35.8019 99.5707 40.1677V115.454C99.5707 119.82 96.1063 123.359 91.8325 123.359H49.8243C45.5505 123.359 42.0859 119.82 42.0859 115.454V40.1677ZM49.8243 33.0155C45.9575 33.0155 42.8229 36.2177 42.8229 40.1677V115.454C42.8229 119.404 45.9575 122.606 49.8243 122.606H91.8325C95.6994 122.606 98.8339 119.404 98.8339 115.454V40.1677C98.8339 36.2177 95.6994 33.0155 91.8325 33.0155H49.8243Z" fill="#3E3D3D"/>
<path fill-rule="evenodd" clipRule="evenodd" d="M45.4023 34.1438C46.6341 33.1988 48.1651 32.6387 49.8243 32.6387H91.8324C93.4914 32.6387 95.0223 33.1988 96.2543 34.1438V121.477C95.0223 122.422 93.4914 122.982 91.8324 122.982H49.8243C48.1651 122.982 46.6341 122.422 45.4023 121.477V34.1438Z" fill="white"/>
<path d="M125.737 82.8925C125.737 87.1542 122.355 90.6092 118.183 90.6092C114.011 90.6092 110.629 87.1542 110.629 82.8925C110.629 78.6307 114.011 75.1758 118.183 75.1758C122.355 75.1758 125.737 78.6307 125.737 82.8925Z" fill="#F1F1F1"/>
<path opacity="0.5" d="M49.8242 50.7074C49.8242 49.6679 50.6491 48.8252 51.6668 48.8252H89.9901C91.0074 48.8252 91.8324 49.6679 91.8324 50.7074V75.9283C91.8324 76.9679 91.0074 77.8103 89.9901 77.8103H51.6668C50.6491 77.8103 49.8242 76.9679 49.8242 75.9283V50.7074Z" fill="#F1F1F1"/>
<path d="M49.9766 85.4619H69.6989V91.994H49.9766V85.4619Z" fill="#0F6800"/>
<path d="M71.832 85.4619H92.0874V91.994H71.832V85.4619Z" fill="#0F6800"/>
<path d="M49.9766 96.3486H69.6989V102.881H49.9766V96.3486Z" fill="#0F6800"/>
<path d="M71.832 96.3486H92.0874V102.881H71.832V96.3486Z" fill="#0F6800"/>
<path d="M50.5117 107.779H77.6966V114.311H50.5117V107.779Z" fill="#0F6800"/>
<path d="M80.043 107.235H91.835V114.011H80.043V107.235Z" fill="#F1F1F1"/>
<path fill-rule="evenodd" clipRule="evenodd" d="M42.0859 40.1677C42.0859 35.8019 45.5505 32.2627 49.8243 32.2627H91.8325C96.1063 32.2627 99.5707 35.8019 99.5707 40.1677V115.454C99.5707 119.82 96.1063 123.359 91.8325 123.359H49.8243C45.5505 123.359 42.0859 119.82 42.0859 115.454V40.1677ZM49.8243 33.0155C45.9575 33.0155 42.8229 36.2177 42.8229 40.1677V115.454C42.8229 119.404 45.9575 122.606 49.8243 122.606H91.8325C95.6994 122.606 98.8339 119.404 98.8339 115.454V40.1677C98.8339 36.2177 95.6994 33.0155 91.8325 33.0155H49.8243Z" fill="#3E3D3D"/>
<path d="M52.7734 16.0762H88.8858V42.0499H52.7734V16.0762Z" fill="#F1F1F1"/>
<path fill-rule="evenodd" clipRule="evenodd" d="M88.8858 16.0763H52.7734V14.0059L52.7813 13.9967C52.7759 13.9378 52.7734 13.8781 52.7734 13.8177C52.7734 12.7782 53.598 11.9355 54.6157 11.9355H90.7281L88.8858 14.0059V16.0763Z" fill="#F1F1F1"/>
<path d="M96.2554 20.2171C96.2554 21.2566 95.4303 22.0993 94.4131 22.0993C93.3954 22.0993 92.5703 21.2566 92.5703 20.2171C92.5703 19.1776 93.3954 18.335 94.4131 18.335C95.4303 18.335 96.2554 19.1776 96.2554 20.2171Z" fill="#0F6800"/>
<path d="M92.5713 13.8177C92.5713 14.8572 91.7467 15.6998 90.729 15.6998C89.7113 15.6998 88.8867 14.8572 88.8867 13.8177C88.8867 12.7782 89.7113 11.9355 90.729 11.9355C91.7467 11.9355 92.5713 12.7782 92.5713 13.8177Z" fill="#F1F1F1"/>
<path d="M88.8867 13.8174H92.5713V22.0989H88.8867V13.8174Z" fill="#F1F1F1"/>
<path d="M24.0312 54.8486H34.349V134.276H24.0312V54.8486Z" fill="#F1F1F1"/>
<path fill-rule="evenodd" clipRule="evenodd" d="M71.0142 54.2838C66.13 54.2838 62.1704 58.3287 62.1704 63.3181C62.1704 68.3075 66.13 72.3524 71.0142 72.3524C75.8988 72.3524 79.8584 68.3075 79.8584 63.3181C79.8584 58.3287 75.8988 54.2838 71.0142 54.2838ZM60.3281 63.3181C60.3281 57.2891 65.1128 52.4014 71.0142 52.4014C76.916 52.4014 81.7007 57.2891 81.7007 63.3181C81.7007 69.3472 76.916 74.2344 71.0142 74.2344C65.1128 74.2344 60.3281 69.3472 60.3281 63.3181Z" fill="#F1F1F1"/>
<path fill-rule="evenodd" clipRule="evenodd" d="M83.7939 57.8049L69.5346 69.838L63.418 60.8127L66.4476 58.6703L70.2807 64.3257L81.4472 54.9023L83.7939 57.8049Z" fill="#0F6800"/>
<path d="M36.008 38.8497C36.008 43.1116 32.5434 46.5665 28.2696 46.5665C23.9959 46.5665 20.5312 43.1116 20.5312 38.8497C20.5312 34.5878 23.9959 31.1328 28.2696 31.1328C32.5434 31.1328 36.008 34.5878 36.008 38.8497Z" fill="#F1F1F1"/>
<path fill-rule="evenodd" clipRule="evenodd" d="M33.7431 37.1946L25.2165 42.794L22.3281 38.0276L23.8947 37.0369L25.7967 40.1755L32.7468 35.6113L33.7431 37.1946Z" fill="#F1F1F1"/>
<path fill-rule="evenodd" clipRule="evenodd" d="M99.2046 100.585L86.8601 90.4211C86.3032 89.9834 85.6419 89.1681 85.0262 88.0804C83.179 84.8177 81.7387 79.1002 84.7296 73.7452C84.958 73.336 85.3228 73.0801 85.7287 72.9805C85.9983 72.9149 86.2856 72.9179 86.563 72.991C86.7954 73.0521 87.0204 73.1623 87.2229 73.322C94.8087 79.312 107.681 89.5752 108.233 90.4211C108.367 90.6264 108.583 90.8512 108.854 91.1327H108.855C110.077 92.4007 112.404 94.8155 113.208 101.714C113.336 102.818 113.49 103.954 113.647 105.113C114.613 112.259 115.697 120.269 111.733 126.747C111.611 128.441 113.208 134.878 120.577 147.074H72.3047C71.9365 146.196 70.9046 144.289 69.7256 143.686C69.531 143.587 69.2344 143.458 68.8589 143.296C66.3852 142.223 60.4931 139.668 57.9336 134.275H58.6704C59.6881 134.275 60.5132 133.433 60.5132 132.393V131.264V122.983H92.2036C96.0701 122.983 99.2046 119.78 99.2046 115.83V100.585Z" fill="#EFCB96"/>
<path d="M52.7734 39.415H88.8858V42.0501H52.7734V39.415Z" fill="#F1F1F1"/>
<path fill-rule="evenodd" clipRule="evenodd" d="M83.1748 20.5927H58.1172V19.8398H83.1748V20.5927ZM83.1748 27.1802H58.1172V26.4274H83.1748V27.1802ZM83.1748 33.2032H58.1172V32.4503H83.1748V33.2032Z" fill="#3E3D3D"/>
</g>
<path d="M68.8785 39.9749C61.8202 40.6758 56.0279 46.341 55.2402 53.3832C54.4615 60.8065 58.6328 67.3202 64.8213 70.2316L71.0235 81.7162C71.2284 82.2896 72.1847 82.2979 72.3623 81.7278L78.018 70.346C83.5052 67.9169 87.1982 62.424 87.0434 55.9452C86.8156 46.4174 78.414 38.9145 68.8785 39.9749Z" fill="#509C00"/>
<path d="M71.1968 64.9528C76.3726 64.9977 80.4684 60.8537 80.3452 55.6969C80.2219 50.5402 75.9262 46.3234 70.7505 46.2785C65.5747 46.2336 61.4788 50.3777 61.6021 55.5344C61.7253 60.6912 66.021 64.9079 71.1968 64.9528Z" fill="white"/>
</g>
<defs>
<clipPath id="clip0_900_1638">
<rect width="147.118" height="150.238" fill="white" transform="translate(0.9375)"/>
</clipPath>
</defs>
</svg>
