<svg width="56" height="57" viewBox="0 0 56 57" fill="none" xmlns="http://www.w3.org/2000/svg">
<path d="M28 1.375C13.0189 1.375 0.875 13.5189 0.875 28.5C0.875 43.4811 13.0189 55.625 28 55.625C42.9811 55.625 55.125 43.4811 55.125 28.5C55.125 13.5189 42.9811 1.375 28 1.375ZM37.0005 40.4875C36.5739 40.9119 36.1266 41.357 35.7634 41.7213C35.4364 42.0494 35.2056 42.4541 35.0886 42.8927C34.9234 43.5117 34.79 44.1373 34.5669 44.7378L32.6648 49.862C31.1598 50.1902 29.6023 50.375 28 50.375V47.3803C28.1848 46 27.1644 43.4144 25.5248 41.7748C24.8686 41.1186 24.5 40.2283 24.5 39.2997V35.7986C24.5 34.5255 23.8142 33.3552 22.6997 32.7394C21.128 31.8698 18.8923 30.6547 17.3611 29.8836C16.1055 29.2514 14.9439 28.4464 13.8994 27.5047L13.8119 27.4259C13.0649 26.7517 12.4017 25.9901 11.8366 25.1575C10.8106 23.6514 9.13937 21.1741 8.05328 19.5641C10.2922 14.5875 14.327 10.5909 19.3408 8.41984L21.9669 9.73344C23.1306 10.3153 24.5 9.46984 24.5 8.16828V6.93234C25.3739 6.79125 26.2631 6.70156 27.1677 6.66766L30.263 9.76297C30.9466 10.4466 30.9466 11.5545 30.263 12.2381L29.75 12.75L28.6191 13.8809C28.2778 14.2222 28.2778 14.7767 28.6191 15.118L29.132 15.6309C29.4733 15.9722 29.4733 16.5267 29.132 16.868L28.257 17.743C28.0927 17.9069 27.8701 17.999 27.638 17.9989H26.6547C26.4272 17.9989 26.2084 18.0875 26.0444 18.2472L24.9594 19.3027C24.8264 19.4322 24.738 19.6006 24.7069 19.7836C24.6758 19.9666 24.7037 20.1548 24.7866 20.3209L26.4917 23.7323C26.7827 24.3142 26.3594 24.9989 25.7097 24.9989H25.0928C24.8817 24.9989 24.6783 24.9223 24.5197 24.7845L23.5047 23.903C23.275 23.7037 22.9974 23.5677 22.6992 23.5082C22.401 23.4488 22.0924 23.468 21.8039 23.5639L18.3947 24.7003C18.1344 24.7871 17.908 24.9536 17.7477 25.1762C17.5873 25.3988 17.501 25.6663 17.5011 25.9406C17.5011 26.4361 17.7811 26.8878 18.2241 27.1098L19.4359 27.7158C20.4652 28.2309 21.6005 28.4989 22.7511 28.4989C23.9017 28.4989 25.2219 31.4837 26.2511 31.9989H33.5519C34.4805 31.9989 35.3697 32.3675 36.027 33.0237L37.5244 34.5211C38.1499 35.1469 38.5012 35.9955 38.5011 36.8803C38.5009 37.5508 38.3682 38.2146 38.1107 38.8336C37.8531 39.4527 37.4758 40.0147 37.0005 40.4875ZM46.4844 30.4961C45.8511 30.3375 45.2988 29.9492 44.9367 29.4056L42.9702 26.4558C42.6824 26.0248 42.5288 25.5182 42.5288 25C42.5288 24.4818 42.6824 23.9752 42.9702 23.5442L45.1128 20.3308C45.3666 19.9513 45.7144 19.6428 46.1234 19.4394L47.5431 18.7295C49.0219 21.6739 49.875 24.9858 49.875 28.5C49.875 29.4483 49.7941 30.3769 49.6759 31.2934L46.4844 30.4961Z" fill="white"/>
</svg>
