<svg width="65" height="65" viewBox="0 0 65 65" fill="none" xmlns="http://www.w3.org/2000/svg">
<path d="M59.5833 10.8336H43.3333V21.6669H21.6667V10.8336H5.41667C2.42622 10.8336 0 13.2598 0 16.2502V55.9724C0 58.9629 2.42622 61.3891 5.41667 61.3891H59.5833C62.5738 61.3891 65 58.9629 65 55.9724V16.2502C65 13.2598 62.5738 10.8336 59.5833 10.8336ZM32.5 28.8891C36.4835 28.8891 39.7222 32.1278 39.7222 36.1113C39.7222 40.0948 36.4835 43.3335 32.5 43.3335C28.5165 43.3335 25.2778 40.0948 25.2778 36.1113C25.2778 32.1278 28.5165 28.8891 32.5 28.8891ZM43.0286 54.1669H21.9714C20.7977 54.1669 19.8498 53.0384 20.2109 51.9325C21.1476 49.0436 23.8672 46.9447 27.0833 46.9447H28.0087C29.3967 47.5202 30.9089 47.8474 32.5 47.8474C34.0911 47.8474 35.6146 47.5202 36.9913 46.9447H37.9167C41.1215 46.9447 43.8411 49.0323 44.7891 51.9325C45.1502 53.0384 44.2023 54.1669 43.0286 54.1669ZM39.7222 7.22244C39.7222 5.22504 38.1085 3.61133 36.1111 3.61133H28.8889C26.8915 3.61133 25.2778 5.22504 25.2778 7.22244V18.0558H39.7222V7.22244Z" fill="white"/>
</svg>
