<svg width="65" height="65" viewBox="0 0 65 65" fill="none" xmlns="http://www.w3.org/2000/svg">
<path d="M9.75 29.25C13.3352 29.25 16.25 26.3352 16.25 22.75C16.25 19.1648 13.3352 16.25 9.75 16.25C6.16484 16.25 3.25 19.1648 3.25 22.75C3.25 26.3352 6.16484 29.25 9.75 29.25ZM55.25 29.25C58.8352 29.25 61.75 26.3352 61.75 22.75C61.75 19.1648 58.8352 16.25 55.25 16.25C51.6648 16.25 48.75 19.1648 48.75 22.75C48.75 26.3352 51.6648 29.25 55.25 29.25ZM58.5 32.5H52C50.2125 32.5 48.5977 33.2211 47.4195 34.3891C51.5125 36.6336 54.4172 40.6859 55.0469 45.5H61.75C63.5477 45.5 65 44.0477 65 42.25V39C65 35.4148 62.0852 32.5 58.5 32.5ZM32.5 32.5C38.7867 32.5 43.875 27.4117 43.875 21.125C43.875 14.8383 38.7867 9.75 32.5 9.75C26.2133 9.75 21.125 14.8383 21.125 21.125C21.125 27.4117 26.2133 32.5 32.5 32.5ZM40.3 35.75H39.457C37.3445 36.7656 34.9984 37.375 32.5 37.375C30.0016 37.375 27.6656 36.7656 25.543 35.75H24.7C18.2406 35.75 13 40.9906 13 47.45V50.375C13 53.0664 15.1836 55.25 17.875 55.25H47.125C49.8164 55.25 52 53.0664 52 50.375V47.45C52 40.9906 46.7594 35.75 40.3 35.75ZM17.5805 34.3891C16.4023 33.2211 14.7875 32.5 13 32.5H6.5C2.91484 32.5 0 35.4148 0 39V42.25C0 44.0477 1.45234 45.5 3.25 45.5H9.94297C10.5828 40.6859 13.4875 36.6336 17.5805 34.3891Z" fill="white"/>
</svg>
