<svg width="22" height="23" viewBox="0 0 22 23" fill="none" xmlns="http://www.w3.org/2000/svg">
<path d="M13.9785 0.500001C12.5214 0.499275 11.0952 0.91949 9.87127 1.71011C8.64735 2.50073 7.67788 3.62809 7.07947 4.95661C6.48105 6.28513 6.27917 7.75823 6.4981 9.19876C6.71702 10.6393 7.34743 11.9859 8.31352 13.0767L0.916016 21.4733L1.94268 22.39L9.32185 14.03C10.271 14.7724 11.3839 15.2773 12.5677 15.5026C13.7515 15.7279 14.972 15.6671 16.1275 15.3252C17.2831 14.9833 18.3402 14.3703 19.2109 13.5371C20.0815 12.704 20.7405 11.6749 21.1329 10.5355C21.5253 9.39612 21.6398 8.17947 21.4668 6.98689C21.2938 5.79431 20.8384 4.66033 20.1384 3.6794C19.4385 2.69846 18.5143 1.89898 17.4428 1.34754C16.3713 0.796093 15.1836 0.508656 13.9785 0.509168V0.500001ZM13.9785 14.25C12.3375 14.25 10.7637 13.5981 9.60329 12.4377C8.44291 11.2773 7.79102 9.70353 7.79102 8.0625C7.79102 6.42147 8.44291 4.84766 9.60329 3.68728C10.7637 2.5269 12.3375 1.875 13.9785 1.875C15.6195 1.875 17.1934 2.5269 18.3537 3.68728C19.5141 4.84766 20.166 6.42147 20.166 8.0625C20.166 9.70353 19.5141 11.2773 18.3537 12.4377C17.1934 13.5981 15.6195 14.25 13.9785 14.25Z" fill="#198754"/>
</svg>
