<svg width="24" height="16" viewBox="0 0 24 16" fill="none" xmlns="http://www.w3.org/2000/svg">
<path d="M23 0H3.66667C3.11438 0 2.66667 0.447708 2.66667 1V1.33333H1C0.447708 1.33333 0 1.78104 0 2.33333V13.6667C0 14.9553 1.04467 16 2.33333 16H22C23.1046 16 24 15.1046 24 14V1C24 0.447708 23.5523 0 23 0ZM2.33333 14C2.24493 14 2.16014 13.9649 2.09763 13.9024C2.03512 13.8399 2 13.7551 2 13.6667V3.33333H2.66667V13.6667C2.66667 13.7551 2.63155 13.8399 2.56904 13.9024C2.50652 13.9649 2.42174 14 2.33333 14ZM12.1667 13.3333H5.83333C5.55721 13.3333 5.33333 13.1095 5.33333 12.8333V12.5C5.33333 12.2239 5.55721 12 5.83333 12H12.1667C12.4428 12 12.6667 12.2239 12.6667 12.5V12.8333C12.6667 13.1095 12.4428 13.3333 12.1667 13.3333ZM20.8333 13.3333H14.5C14.2239 13.3333 14 13.1095 14 12.8333V12.5C14 12.2239 14.2239 12 14.5 12H20.8333C21.1095 12 21.3333 12.2239 21.3333 12.5V12.8333C21.3333 13.1095 21.1095 13.3333 20.8333 13.3333ZM12.1667 9.33333H5.83333C5.55721 9.33333 5.33333 9.10946 5.33333 8.83333V8.5C5.33333 8.22388 5.55721 8 5.83333 8H12.1667C12.4428 8 12.6667 8.22388 12.6667 8.5V8.83333C12.6667 9.10946 12.4428 9.33333 12.1667 9.33333ZM20.8333 9.33333H14.5C14.2239 9.33333 14 9.10946 14 8.83333V8.5C14 8.22388 14.2239 8 14.5 8H20.8333C21.1095 8 21.3333 8.22388 21.3333 8.5V8.83333C21.3333 9.10946 21.1095 9.33333 20.8333 9.33333ZM20.8333 5.33333H5.83333C5.55721 5.33333 5.33333 5.10946 5.33333 4.83333V3.16667C5.33333 2.89054 5.55721 2.66667 5.83333 2.66667H20.8333C21.1095 2.66667 21.3333 2.89054 21.3333 3.16667V4.83333C21.3333 5.10946 21.1095 5.33333 20.8333 5.33333Z" fill="white"/>
</svg>
