<svg width="21" height="21" viewBox="0 0 21 21" fill="none" xmlns="http://www.w3.org/2000/svg">
<path d="M19.6179 16.4029C19.8046 16.5274 19.9362 16.7191 19.9854 16.938C20.0346 17.1569 19.9976 17.3864 19.8822 17.5789L18.8311 19.3296C18.5522 19.8031 18.1018 20.1513 17.5732 20.3018C15.8261 20.7808 11.9734 20.8771 5.79765 14.7045C-0.378076 8.53186 -0.280829 4.67833 0.198401 2.93274C0.348836 2.40426 0.696809 1.95384 1.17027 1.67475L2.92227 0.624289C3.11474 0.508898 3.34428 0.472033 3.56322 0.521346C3.78217 0.570658 3.97371 0.702361 4.09809 0.889115L6.89116 5.07725C7.01319 5.26065 7.06137 5.48338 7.02603 5.7008C6.9907 5.91822 6.87446 6.11426 6.70063 6.24961L5.13185 7.46859C4.96729 7.59556 4.85369 7.77727 4.81163 7.98077C4.76957 8.18427 4.80184 8.39611 4.9026 8.57787C5.36292 9.40556 5.79917 10.3811 7.95936 12.5432C10.1196 14.7054 11.0994 15.1388 11.9261 15.5989C12.1079 15.6997 12.3198 15.7319 12.5234 15.6897C12.7269 15.6474 12.9085 15.5336 13.0352 15.3688L14.2546 13.8015C14.3899 13.6276 14.5861 13.5112 14.8037 13.4759C15.0213 13.4405 15.2442 13.4888 15.4277 13.6111L19.6179 16.4029Z" fill="#1E433D"/>
</svg>
