<svg width="22" height="24" viewBox="0 0 22 24" fill="none" xmlns="http://www.w3.org/2000/svg">
<path d="M11 12C14.3141 12 17 9.31406 17 6C17 2.68594 14.3141 0 11 0C7.68594 0 5 2.68594 5 6C5 9.31406 7.68594 12 11 12ZM15.4906 13.5281L13.25 22.5L11.75 16.125L13.25 13.5H8.75L10.25 16.125L8.75 22.5L6.50937 13.5281C3.16719 13.6875 0.5 16.4203 0.5 19.8V21.75C0.5 22.9922 1.50781 24 2.75 24H19.25C20.4922 24 21.5 22.9922 21.5 21.75V19.8C21.5 16.4203 18.8328 13.6875 15.4906 13.5281Z" fill="#1E433D"/>
</svg>
