<svg width="24" height="18" viewBox="0 0 24 18" fill="none" xmlns="http://www.w3.org/2000/svg">
<path d="M3.6 7.79961C4.92375 7.79961 6 6.72336 6 5.39961C6 4.07586 4.92375 2.99961 3.6 2.99961C2.27625 2.99961 1.2 4.07586 1.2 5.39961C1.2 6.72336 2.27625 7.79961 3.6 7.79961ZM20.4 7.79961C21.7238 7.79961 22.8 6.72336 22.8 5.39961C22.8 4.07586 21.7238 2.99961 20.4 2.99961C19.0763 2.99961 18 4.07586 18 5.39961C18 6.72336 19.0763 7.79961 20.4 7.79961ZM21.6 8.99961H19.2C18.54 8.99961 17.9438 9.26586 17.5088 9.69711C19.02 10.5259 20.0925 12.0221 20.325 13.7996H22.8C23.4638 13.7996 24 13.2634 24 12.5996V11.3996C24 10.0759 22.9238 8.99961 21.6 8.99961ZM12 8.99961C14.3213 8.99961 16.2 7.12086 16.2 4.79961C16.2 2.47836 14.3213 0.599609 12 0.599609C9.67875 0.599609 7.8 2.47836 7.8 4.79961C7.8 7.12086 9.67875 8.99961 12 8.99961ZM14.88 10.1996H14.5688C13.7888 10.5746 12.9225 10.7996 12 10.7996C11.0775 10.7996 10.215 10.5746 9.43125 10.1996H9.12C6.735 10.1996 4.8 12.1346 4.8 14.5196V15.5996C4.8 16.5934 5.60625 17.3996 6.6 17.3996H17.4C18.3938 17.3996 19.2 16.5934 19.2 15.5996V14.5196C19.2 12.1346 17.265 10.1996 14.88 10.1996ZM6.49125 9.69711C6.05625 9.26586 5.46 8.99961 4.8 8.99961H2.4C1.07625 8.99961 0 10.0759 0 11.3996V12.5996C0 13.2634 0.53625 13.7996 1.2 13.7996H3.67125C3.9075 12.0221 4.98 10.5259 6.49125 9.69711Z" fill="#1E433D"/>
</svg>
